<?xml version="1.0" encoding="UTF-8" standalone="no"?>
<!DOCTYPE svg PUBLIC "-//W3C//DTD SVG 1.1//EN" "http://www.w3.org/Graphics/SVG/1.1/DTD/svg11.dtd">
<svg width="100%" height="100%" viewBox="0 0 970 919" version="1.1" xmlns="http://www.w3.org/2000/svg" xmlns:xlink="http://www.w3.org/1999/xlink" xml:space="preserve" xmlns:affinity="https://www.affinity.studio/" style="fill-rule:evenodd;clip-rule:evenodd;stroke-linejoin:round;stroke-miterlimit:2;">
    <g transform="matrix(1,0,0,1,-117,-113.225748)">
        <g transform="matrix(1,0,0,1,-648,-122)">
            <path d="M1250,410C1480,410 1640,560 1640,760C1640,920 1560,1080 1420,1135C1350,1160 1150,1160 1080,1135C940,1080 860,920 860,760C860,560 1020,410 1250,410Z" style="fill:rgb(246,218,185);fill-rule:nonzero;"/>
        </g>
        <g transform="matrix(1,0,0,1,-648,-122)">
            <g id="Front_02_Franja_Lateral" transform="matrix(1.098044,0,0,1.094848,-127.055271,-213.909042)">
                <g transform="matrix(4.341317,0,0,4.341317,-4508.757,-338.877183)">
                    <path d="M1229,233.045C1230.99,253.18 1238.31,269.106 1244.96,274.552L1256.43,274.552L1258.42,267.045C1263.91,267.045 1268.9,270.136 1274.38,250.708C1289.68,249.53 1321.16,247.175 1324.75,247.175C1341.54,247.764 1375.72,249.295 1378.12,250.708C1382.61,263.071 1383.6,267.929 1394.08,267.045L1396.07,274.552L1408.04,274.552C1414.69,269.106 1422.01,253.18 1424,233.045C1419.68,231.279 1409.14,227.747 1401.56,227.747C1400.73,216.855 1397.17,193.57 1389.59,187.565C1382.44,188.006 1366.55,190.038 1360.16,194.63C1360.16,192.422 1328.74,172.552 1324.75,172.552C1321.56,172.552 1302.15,187.27 1292.84,194.63C1286.45,190.038 1270.56,188.006 1263.41,187.565C1255.83,193.57 1252.27,216.855 1251.44,227.747C1243.86,227.747 1233.32,231.279 1229,233.045Z" style="fill:rgb(74,46,24);fill-rule:nonzero;"/>
                </g>
            </g>
        </g>
        <g transform="matrix(1,0,0,1,-648,-137)">
            <g id="_01_Orelha_Esquerda" affinity:id="01_Orelha_Esquerda" transform="matrix(1,0,0,1,0,-15)">
                <path d="M900,810C800,805 765,850 765,890C765,940 815,975 900,970L900,810Z" style="fill:rgb(246,218,185);fill-rule:nonzero;"/>
            </g>
        </g>
        <g transform="matrix(1,0,0,1,-648,-137)">
            <g id="_02_Orelha_Direita" affinity:id="02_Orelha_Direita" transform="matrix(1,0,0,1,0,-15)">
                <path d="M1600,810C1700,805 1735,850 1735,890C1735,940 1685,975 1600,970L1600,810Z" style="fill:rgb(246,218,185);fill-rule:nonzero;"/>
            </g>
        </g>
    </g>
</svg>
