<?xml version="1.0" encoding="UTF-8" standalone="no"?>
<!DOCTYPE svg PUBLIC "-//W3C//DTD SVG 1.1//EN" "http://www.w3.org/Graphics/SVG/1.1/DTD/svg11.dtd">
<svg width="100%" height="100%" viewBox="0 0 970 839" version="1.1" xmlns="http://www.w3.org/2000/svg" xmlns:xlink="http://www.w3.org/1999/xlink" xml:space="preserve" xmlns:affinity="https://www.affinity.studio/" style="fill-rule:evenodd;clip-rule:evenodd;stroke-linejoin:round;stroke-miterlimit:2;">
    <g transform="matrix(1,0,0,1,-117,-193)">
        <g transform="matrix(1,0,0,1,-648,-122)">
            <path d="M1250,410C1480,410 1640,560 1640,760C1640,920 1560,1080 1420,1135C1350,1160 1150,1160 1080,1135C940,1080 860,920 860,760C860,560 1020,410 1250,410Z" style="fill:rgb(246,218,185);fill-rule:nonzero;"/>
        </g>
        <g transform="matrix(1,0,0,1,-648,-122)">
            <g id="Front_15_Rabicho_Curto" transform="matrix(1,0,0,1,0,-95)">
                <g transform="matrix(4.341317,0,0,4.341317,613.997059,-2390.149465)">
                    <path d="M78.5,730C129.7,726 175.167,702 191.5,690.5C195.167,702.5 207.36,725.867 217.5,731.5C231,739 229.5,741.5 229.5,746C237.333,744.667 251.1,734.4 243.5,704C235.9,673.6 210.667,674.333 199,678.5C199.5,675 194,645 148.5,645C78.5,645 48.5,694 48.5,718C48.5,737.2 58.5,744.667 63.5,746C66.7,735.2 74.833,730.833 78.5,730Z" style="fill:rgb(74,46,24);fill-rule:nonzero;"/>
                </g>
            </g>
        </g>
        <g transform="matrix(1,0,0,1,-648,-137)">
            <g id="_01_Orelha_Esquerda" affinity:id="01_Orelha_Esquerda" transform="matrix(1,0,0,1,0,-15)">
                <path d="M900,810C800,805 765,850 765,890C765,940 815,975 900,970L900,810Z" style="fill:rgb(246,218,185);fill-rule:nonzero;"/>
            </g>
        </g>
        <g transform="matrix(1,0,0,1,-648,-137)">
            <g id="_02_Orelha_Direita" affinity:id="02_Orelha_Direita" transform="matrix(1,0,0,1,0,-15)">
                <path d="M1600,810C1700,805 1735,850 1735,890C1735,940 1685,975 1600,970L1600,810Z" style="fill:rgb(246,218,185);fill-rule:nonzero;"/>
            </g>
        </g>
    </g>
</svg>
