<svg viewBox="0.0 1151.0 153.0 80.0" width="100%" height="100%" xmlns="http://www.w3.org/2000/svg">
<defs>
<filter id="filter0_d_495_57" x="31.3555" y="1197" width="42" height="45" filterUnits="userSpaceOnUse" color-interpolation-filters="sRGB">
<feFlood flood-opacity="0" result="BackgroundImageFix"/>
<feColorMatrix in="SourceAlpha" type="matrix" values="0 0 0 0 0 0 0 0 0 0 0 0 0 0 0 0 0 0 127 0" result="hardAlpha"/>
<feOffset dx="1" dy="2"/>
<feGaussianBlur stdDeviation="1"/>
<feColorMatrix type="matrix" values="0 0 0 0 0.12809 0 0 0 0 0.156238 0 0 0 0 0.904167 0 0 0 0.7 0"/>
<feBlend mode="normal" in2="BackgroundImageFix" result="effect1_dropShadow_495_57"/>
<feBlend mode="normal" in="SourceGraphic" in2="effect1_dropShadow_495_57" result="shape"/>
</filter>
<filter id="filter1_d_495_57" x="116.165" y="1158" width="21.4453" height="23" filterUnits="userSpaceOnUse" color-interpolation-filters="sRGB">
<feFlood flood-opacity="0" result="BackgroundImageFix"/>
<feColorMatrix in="SourceAlpha" type="matrix" values="0 0 0 0 0 0 0 0 0 0 0 0 0 0 0 0 0 0 127 0" result="hardAlpha"/>
<feOffset dx="1" dy="2"/>
<feGaussianBlur stdDeviation="1"/>
<feColorMatrix type="matrix" values="0 0 0 0 0.12809 0 0 0 0 0.156238 0 0 0 0 0.904167 0 0 0 0.7 0"/>
<feBlend mode="normal" in2="BackgroundImageFix" result="effect1_dropShadow_495_57"/>
<feBlend mode="normal" in="SourceGraphic" in2="effect1_dropShadow_495_57" result="shape"/>
</filter>
<filter id="filter2_d_495_57" x="79.2588" y="1195" width="31.7412" height="33.9297" filterUnits="userSpaceOnUse" color-interpolation-filters="sRGB">
<feFlood flood-opacity="0" result="BackgroundImageFix"/>
<feColorMatrix in="SourceAlpha" type="matrix" values="0 0 0 0 0 0 0 0 0 0 0 0 0 0 0 0 0 0 127 0" result="hardAlpha"/>
<feOffset dx="1" dy="2"/>
<feGaussianBlur stdDeviation="1"/>
<feColorMatrix type="matrix" values="0 0 0 0 0.12809 0 0 0 0 0.156238 0 0 0 0 0.904167 0 0 0 0.7 0"/>
<feBlend mode="normal" in2="BackgroundImageFix" result="effect1_dropShadow_495_57"/>
<feBlend mode="normal" in="SourceGraphic" in2="effect1_dropShadow_495_57" result="shape"/>
</filter>
<filter id="filter3_d_495_57" x="81.3555" y="1160" width="42" height="45" filterUnits="userSpaceOnUse" color-interpolation-filters="sRGB">
<feFlood flood-opacity="0" result="BackgroundImageFix"/>
<feColorMatrix in="SourceAlpha" type="matrix" values="0 0 0 0 0 0 0 0 0 0 0 0 0 0 0 0 0 0 127 0" result="hardAlpha"/>
<feOffset dx="1" dy="2"/>
<feGaussianBlur stdDeviation="1"/>
<feColorMatrix type="matrix" values="0 0 0 0 0.12809 0 0 0 0 0.156238 0 0 0 0 0.904167 0 0 0 0.7 0"/>
<feBlend mode="normal" in2="BackgroundImageFix" result="effect1_dropShadow_495_57"/>
<feBlend mode="normal" in="SourceGraphic" in2="effect1_dropShadow_495_57" result="shape"/>
</filter>
<filter id="filter4_d_495_57" x="70.1299" y="1180" width="17.7402" height="18.9697" filterUnits="userSpaceOnUse" color-interpolation-filters="sRGB">
<feFlood flood-opacity="0" result="BackgroundImageFix"/>
<feColorMatrix in="SourceAlpha" type="matrix" values="0 0 0 0 0 0 0 0 0 0 0 0 0 0 0 0 0 0 127 0" result="hardAlpha"/>
<feOffset dx="1" dy="2"/>
<feGaussianBlur stdDeviation="1"/>
<feColorMatrix type="matrix" values="0 0 0 0 0.12809 0 0 0 0 0.156238 0 0 0 0 0.904167 0 0 0 0.7 0"/>
<feBlend mode="normal" in2="BackgroundImageFix" result="effect1_dropShadow_495_57"/>
<feBlend mode="normal" in="SourceGraphic" in2="effect1_dropShadow_495_57" result="shape"/>
</filter>
<filter id="filter5_d_495_57" x="127.13" y="1200" width="17.7402" height="18.9697" filterUnits="userSpaceOnUse" color-interpolation-filters="sRGB">
<feFlood flood-opacity="0" result="BackgroundImageFix"/>
<feColorMatrix in="SourceAlpha" type="matrix" values="0 0 0 0 0 0 0 0 0 0 0 0 0 0 0 0 0 0 127 0" result="hardAlpha"/>
<feOffset dx="1" dy="2"/>
<feGaussianBlur stdDeviation="1"/>
<feColorMatrix type="matrix" values="0 0 0 0 0.12809 0 0 0 0 0.156238 0 0 0 0 0.904167 0 0 0 0.7 0"/>
<feBlend mode="normal" in2="BackgroundImageFix" result="effect1_dropShadow_495_57"/>
<feBlend mode="normal" in="SourceGraphic" in2="effect1_dropShadow_495_57" result="shape"/>
</filter>
<filter id="filter6_d_495_57" x="83.1016" y="1156" width="14.8975" height="15.7598" filterUnits="userSpaceOnUse" color-interpolation-filters="sRGB">
<feFlood flood-opacity="0" result="BackgroundImageFix"/>
<feColorMatrix in="SourceAlpha" type="matrix" values="0 0 0 0 0 0 0 0 0 0 0 0 0 0 0 0 0 0 127 0" result="hardAlpha"/>
<feOffset dx="1" dy="2"/>
<feGaussianBlur stdDeviation="1"/>
<feColorMatrix type="matrix" values="0 0 0 0 0.12809 0 0 0 0 0.156238 0 0 0 0 0.904167 0 0 0 0.7 0"/>
<feBlend mode="normal" in2="BackgroundImageFix" result="effect1_dropShadow_495_57"/>
<feBlend mode="normal" in="SourceGraphic" in2="effect1_dropShadow_495_57" result="shape"/>
</filter>
<filter id="filter7_d_495_57" x="71.208" y="1216" width="26.2109" height="27.9697" filterUnits="userSpaceOnUse" color-interpolation-filters="sRGB">
<feFlood flood-opacity="0" result="BackgroundImageFix"/>
<feColorMatrix in="SourceAlpha" type="matrix" values="0 0 0 0 0 0 0 0 0 0 0 0 0 0 0 0 0 0 127 0" result="hardAlpha"/>
<feOffset dx="1" dy="2"/>
<feGaussianBlur stdDeviation="1"/>
<feColorMatrix type="matrix" values="0 0 0 0 0.12809 0 0 0 0 0.156238 0 0 0 0 0.904167 0 0 0 0.7 0"/>
<feBlend mode="normal" in2="BackgroundImageFix" result="effect1_dropShadow_495_57"/>
<feBlend mode="normal" in="SourceGraphic" in2="effect1_dropShadow_495_57" result="shape"/>
</filter>
<filter id="filter8_d_495_57" x="-6.66699" y="1159" width="39.666" height="42.4805" filterUnits="userSpaceOnUse" color-interpolation-filters="sRGB">
<feFlood flood-opacity="0" result="BackgroundImageFix"/>
<feColorMatrix in="SourceAlpha" type="matrix" values="0 0 0 0 0 0 0 0 0 0 0 0 0 0 0 0 0 0 127 0" result="hardAlpha"/>
<feOffset dx="1" dy="2"/>
<feGaussianBlur stdDeviation="1"/>
<feColorMatrix type="matrix" values="0 0 0 0 0.12809 0 0 0 0 0.156238 0 0 0 0 0.904167 0 0 0 0.7 0"/>
<feBlend mode="normal" in2="BackgroundImageFix" result="effect1_dropShadow_495_57"/>
<feBlend mode="normal" in="SourceGraphic" in2="effect1_dropShadow_495_57" result="shape"/>
</filter>
<filter id="filter9_d_495_57" x="21.1201" y="1157" width="16.7588" height="17.9004" filterUnits="userSpaceOnUse" color-interpolation-filters="sRGB">
<feFlood flood-opacity="0" result="BackgroundImageFix"/>
<feColorMatrix in="SourceAlpha" type="matrix" values="0 0 0 0 0 0 0 0 0 0 0 0 0 0 0 0 0 0 127 0" result="hardAlpha"/>
<feOffset dx="1" dy="2"/>
<feGaussianBlur stdDeviation="1"/>
<feColorMatrix type="matrix" values="0 0 0 0 0.12809 0 0 0 0 0.156238 0 0 0 0 0.904167 0 0 0 0.7 0"/>
<feBlend mode="normal" in2="BackgroundImageFix" result="effect1_dropShadow_495_57"/>
<feBlend mode="normal" in="SourceGraphic" in2="effect1_dropShadow_495_57" result="shape"/>
</filter>
<filter id="filter10_d_495_57" x="24.3174" y="1196" width="20.6826" height="22" filterUnits="userSpaceOnUse" color-interpolation-filters="sRGB">
<feFlood flood-opacity="0" result="BackgroundImageFix"/>
<feColorMatrix in="SourceAlpha" type="matrix" values="0 0 0 0 0 0 0 0 0 0 0 0 0 0 0 0 0 0 127 0" result="hardAlpha"/>
<feOffset dx="1" dy="2"/>
<feGaussianBlur stdDeviation="1"/>
<feColorMatrix type="matrix" values="0 0 0 0 0.12809 0 0 0 0 0.156238 0 0 0 0 0.904167 0 0 0 0.7 0"/>
<feBlend mode="normal" in2="BackgroundImageFix" result="effect1_dropShadow_495_57"/>
<feBlend mode="normal" in="SourceGraphic" in2="effect1_dropShadow_495_57" result="shape"/>
</filter>
<filter id="filter11_d_495_57" x="45.2598" y="1154" width="31.8047" height="34" filterUnits="userSpaceOnUse" color-interpolation-filters="sRGB">
<feFlood flood-opacity="0" result="BackgroundImageFix"/>
<feColorMatrix in="SourceAlpha" type="matrix" values="0 0 0 0 0 0 0 0 0 0 0 0 0 0 0 0 0 0 127 0" result="hardAlpha"/>
<feOffset dx="1" dy="2"/>
<feGaussianBlur stdDeviation="1"/>
<feColorMatrix type="matrix" values="0 0 0 0 0.12809 0 0 0 0 0.156238 0 0 0 0 0.904167 0 0 0 0.7 0"/>
<feBlend mode="normal" in2="BackgroundImageFix" result="effect1_dropShadow_495_57"/>
<feBlend mode="normal" in="SourceGraphic" in2="effect1_dropShadow_495_57" result="shape"/>
</filter>
<filter id="filter12_d_495_57" x="129.26" y="1176" width="31.8047" height="34" filterUnits="userSpaceOnUse" color-interpolation-filters="sRGB">
<feFlood flood-opacity="0" result="BackgroundImageFix"/>
<feColorMatrix in="SourceAlpha" type="matrix" values="0 0 0 0 0 0 0 0 0 0 0 0 0 0 0 0 0 0 127 0" result="hardAlpha"/>
<feOffset dx="1" dy="2"/>
<feGaussianBlur stdDeviation="1"/>
<feColorMatrix type="matrix" values="0 0 0 0 0.12809 0 0 0 0 0.156238 0 0 0 0 0.904167 0 0 0 0.7 0"/>
<feBlend mode="normal" in2="BackgroundImageFix" result="effect1_dropShadow_495_57"/>
<feBlend mode="normal" in="SourceGraphic" in2="effect1_dropShadow_495_57" result="shape"/>
</filter>
<filter id="filter13_d_495_57" x="44.1387" y="1146" width="18.7227" height="20.0303" filterUnits="userSpaceOnUse" color-interpolation-filters="sRGB">
<feFlood flood-opacity="0" result="BackgroundImageFix"/>
<feColorMatrix in="SourceAlpha" type="matrix" values="0 0 0 0 0 0 0 0 0 0 0 0 0 0 0 0 0 0 127 0" result="hardAlpha"/>
<feOffset dx="1" dy="2"/>
<feGaussianBlur stdDeviation="1"/>
<feColorMatrix type="matrix" values="0 0 0 0 0.12809 0 0 0 0 0.156238 0 0 0 0 0.904167 0 0 0 0.7 0"/>
<feBlend mode="normal" in2="BackgroundImageFix" result="effect1_dropShadow_495_57"/>
<feBlend mode="normal" in="SourceGraphic" in2="effect1_dropShadow_495_57" result="shape"/>
</filter>
<clipPath id="clip_top_crop_top_08_torso"><path d="M 49.5 1151.0 L 49.5 1141.0 L 103.0 1141.0 L 103.0 1151.0 L 122.0 1201.5 L 175.0 1201.5 L 175.0 1241.0 L -20.0 1241.0 L -20.0 1201.5 L 30.5 1201.5 Z"/></clipPath>
</defs>
<g clip-path="url(#clip_top_crop_top_08_torso)">
<mask id="mask2_495_57" style="mask-type:alpha" maskUnits="userSpaceOnUse" x="0" y="1151" width="153" height="80">
<path d="M0 1186.5C6.8 1172.5 38 1151 49.5 1151C55.6667 1153.5 61.5 1166.5 76 1166.5C90.5 1166.5 97 1153.5 103 1151C114.5 1151 145.7 1172.5 152.5 1186.5C150.333 1196 137 1207.5 133 1209.5C130 1207.5 123.6 1203.1 122 1201.5C120 1199.5 127 1219 126.5 1226.5C115.5 1228.5 89.1 1230.5 75.5 1230.5C61.9 1230.5 37 1229 26 1226.5C25.5 1219 32.5 1199.5 30.5 1201.5C28.9 1203.1 22.5 1207.5 19.5 1209.5C15.5 1207.5 2.1667 1196 0 1186.5Z" fill="black"/>
</mask>
<g mask="url(#mask2_495_57)">
<path d="M182 1141H-31V1304H182V1141Z" fill="#373EF8"/>
<g filter="url(#filter0_d_495_57)">
<path d="M70 1218.02C70.117 1218.02 70.236 1218.03 70.355 1218.03C70.238 1218.02 70.12 1218.02 70 1218.02Z" fill="#FFE27B"/>
<path d="M51.1777 1197C51.1777 1205.87 47.4016 1217.84 32.3555 1218.02C39.1656 1218.11 51.1777 1225.6 51.1777 1238C51.1777 1225.6 63.1899 1218.11 70.0003 1218.02C54.9539 1217.84 51.1777 1205.87 51.1777 1197Z" fill="#FFE27B"/>
<path d="M51.178 1207.58C51.178 1212.16 49.2248 1218.34 41.4424 1218.43C44.9648 1218.48 51.178 1222.34 51.178 1228.74C51.178 1222.34 57.3912 1218.48 60.9136 1218.43C53.1312 1218.34 51.178 1212.16 51.178 1207.58Z" fill="#FFFDE8"/>
</g>
<g filter="url(#filter1_d_495_57)">
<path d="M125.887 1158C125.887 1162.11 124.137 1167.66 117.165 1167.74C120.32 1167.78 125.887 1171.26 125.887 1177C125.887 1171.26 131.454 1167.78 134.61 1167.74C127.637 1167.66 125.887 1162.11 125.887 1158Z" fill="#FFE27B"/>
<path d="M125.887 1162.9C125.887 1165.02 124.982 1167.89 121.375 1167.93C123.008 1167.95 125.887 1169.74 125.887 1172.71C125.887 1169.74 128.766 1167.95 130.399 1167.93C126.792 1167.89 125.887 1165.02 125.887 1162.9Z" fill="#FFFDE8"/>
</g>
<g filter="url(#filter2_d_495_57)">
<path d="M93.9998 1195C93.9998 1201.47 91.2428 1210.21 80.2588 1210.35C85.2308 1210.41 93.9998 1215.88 93.9998 1224.93C93.9998 1215.88 102.769 1210.41 107.741 1210.35C96.7568 1210.21 93.9998 1201.47 93.9998 1195Z" fill="#FFE27B"/>
<path d="M101.106 1210.65C101.151 1210.65 101.195 1210.65 101.24 1210.65C101.196 1210.65 101.152 1210.64 101.106 1210.65Z" fill="#FFFDE8"/>
<path d="M93.9996 1202.72C93.9996 1206.06 92.5736 1210.58 86.8926 1210.65C89.4636 1210.68 93.9996 1213.5 93.9996 1218.17C93.9996 1213.5 98.5356 1210.68 101.107 1210.65C95.4256 1210.58 93.9996 1206.06 93.9996 1202.72Z" fill="#FFFDE8"/>
</g>
<g filter="url(#filter3_d_495_57)">
<path d="M120 1181.02C120.117 1181.02 120.236 1181.03 120.355 1181.03C120.238 1181.02 120.12 1181.02 120 1181.02Z" fill="#FFE27B"/>
<path d="M101.177 1160C101.177 1168.87 97.4015 1180.84 82.3555 1181.02C89.1655 1181.11 101.177 1188.6 101.177 1201C101.177 1188.6 113.19 1181.11 120 1181.02C104.954 1180.84 101.177 1168.87 101.177 1160Z" fill="#FFE27B"/>
<path d="M101.177 1170.58C101.177 1175.16 99.2244 1181.34 91.4424 1181.43C94.9644 1181.48 101.177 1185.34 101.177 1191.74C101.177 1185.34 107.391 1181.48 110.913 1181.43C103.131 1181.34 101.177 1175.16 101.177 1170.58Z" fill="#FFFDE8"/>
</g>
<g filter="url(#filter4_d_495_57)">
<path d="M77.9999 1180C77.9999 1183.24 76.6219 1187.61 71.1299 1187.67C73.6149 1187.71 77.9999 1190.44 77.9999 1194.97C77.9999 1190.44 82.3849 1187.71 84.8699 1187.67C79.3779 1187.61 77.9999 1183.24 77.9999 1180Z" fill="#FFE27B"/>
<path d="M78.0003 1183.86C78.0003 1185.53 77.2873 1187.79 74.4463 1187.82C75.7323 1187.84 78.0003 1189.25 78.0003 1191.59C78.0003 1189.25 80.2683 1187.84 81.5543 1187.82C78.7133 1187.79 78.0003 1185.53 78.0003 1183.86Z" fill="#FFFDE8"/>
</g>
<g filter="url(#filter5_d_495_57)">
<path d="M135 1200C135 1203.24 133.622 1207.61 128.13 1207.67C130.615 1207.71 135 1210.44 135 1214.97C135 1210.44 139.385 1207.71 141.87 1207.67C136.378 1207.61 135 1203.24 135 1200Z" fill="#FFE27B"/>
<path d="M135 1203.86C135 1205.53 134.287 1207.79 131.446 1207.82C132.732 1207.84 135 1209.25 135 1211.59C135 1209.25 137.268 1207.84 138.554 1207.82C135.713 1207.79 135 1205.53 135 1203.86Z" fill="#FFFDE8"/>
</g>
<g filter="url(#filter6_d_495_57)">
<path d="M89.4996 1156C89.4996 1158.54 88.4166 1161.98 84.1016 1162.03C86.0546 1162.06 89.4996 1164.2 89.4996 1167.76C89.4996 1164.2 92.9446 1162.06 94.8976 1162.03C90.5826 1161.98 89.4996 1158.54 89.4996 1156Z" fill="#FFE27B"/>
<path d="M89.5 1159.03C89.5 1160.35 88.94 1162.12 86.708 1162.15C87.718 1162.16 89.5 1163.27 89.5 1165.1C89.5 1163.27 91.282 1162.16 92.292 1162.15C90.06 1162.12 89.5 1160.35 89.5 1159.03Z" fill="#FFFDE8"/>
</g>
<g filter="url(#filter7_d_495_57)">
<path d="M83.21 1216C83.21 1221.18 81.002 1228.18 72.208 1228.29C76.188 1228.34 83.21 1232.72 83.21 1239.97C83.21 1232.72 90.231 1228.34 94.212 1228.29C85.417 1228.18 83.21 1221.18 83.21 1216Z" fill="#FFE27B"/>
<path d="M83.2096 1222.18C83.2096 1224.86 82.0676 1228.47 77.5186 1228.53C79.5776 1228.55 83.2096 1230.81 83.2096 1234.55C83.2096 1230.81 86.8406 1228.55 88.8996 1228.53C84.3506 1228.47 83.2096 1224.86 83.2096 1222.18Z" fill="#FFFDE8"/>
</g>
<g filter="url(#filter8_d_495_57)">
<path d="M11.9996 1159C11.9996 1167.32 8.45531 1178.56 -5.66699 1178.73C0.725008 1178.82 11.9996 1185.85 11.9996 1197.48C11.9996 1185.85 23.2742 1178.82 29.6662 1178.73C15.5439 1178.56 11.9996 1167.32 11.9996 1159Z" fill="#FFE27B"/>
<path d="M21.1377 1179.12C21.1949 1179.12 21.2524 1179.12 21.3102 1179.12C21.2535 1179.12 21.196 1179.11 21.1377 1179.12Z" fill="#FFFDE8"/>
<path d="M11.9991 1168.93C11.9991 1173.23 10.1659 1179.03 2.86133 1179.12C6.16743 1179.16 11.9991 1182.79 11.9991 1188.79C11.9991 1182.79 17.8309 1179.16 21.137 1179.12C13.8324 1179.03 11.9991 1173.23 11.9991 1168.93Z" fill="#FFFDE8"/>
</g>
<g filter="url(#filter9_d_495_57)">
<path d="M28.4997 1157C28.4997 1160.01 27.2198 1164.06 22.1201 1164.13C24.4283 1164.16 28.4997 1166.69 28.4997 1170.9C28.4997 1166.69 32.5711 1164.16 34.8793 1164.13C29.7796 1164.06 28.4997 1160.01 28.4997 1157Z" fill="#FFE27B"/>
<path d="M28.5 1160.59C28.5 1162.14 27.838 1164.23 25.2002 1164.26C26.3941 1164.28 28.5 1165.59 28.5 1167.76C28.5 1165.59 30.6059 1164.28 31.7998 1164.26C29.162 1164.23 28.5 1162.14 28.5 1160.59Z" fill="#FFFDE8"/>
</g>
<g filter="url(#filter10_d_495_57)">
<path d="M33.5808 1196C33.5808 1199.89 31.923 1205.15 25.3174 1205.23C28.3072 1205.27 33.5808 1208.56 33.5808 1214C33.5808 1208.56 38.8545 1205.27 41.8442 1205.23C35.2387 1205.15 33.5808 1199.89 33.5808 1196Z" fill="#FFE27B"/>
<path d="M33.5808 1200.65C33.5808 1202.65 32.7233 1205.37 29.3066 1205.41C30.853 1205.43 33.5808 1207.13 33.5808 1209.94C33.5808 1207.13 36.3085 1205.43 37.8549 1205.41C34.4383 1205.37 33.5808 1202.65 33.5808 1200.65Z" fill="#FFFDE8"/>
</g>
<g filter="url(#filter11_d_495_57)">
<path d="M60.0322 1154C60.0322 1160.49 57.2691 1169.25 46.2598 1169.38C51.2428 1169.45 60.0322 1174.93 60.0322 1184C60.0322 1174.93 68.8215 1169.45 73.8049 1169.38C62.7952 1169.25 60.0322 1160.49 60.0322 1154Z" fill="#FFE27B"/>
<path d="M60.0318 1161.74C60.0318 1165.09 58.6027 1169.61 52.9082 1169.68C55.4856 1169.72 60.0318 1172.54 60.0318 1177.23C60.0318 1172.54 64.5781 1169.72 67.1555 1169.68C61.461 1169.61 60.0318 1165.09 60.0318 1161.74Z" fill="#FFFDE8"/>
</g>
<g filter="url(#filter12_d_495_57)">
<path d="M144.032 1176C144.032 1182.49 141.269 1191.25 130.26 1191.38C135.243 1191.45 144.032 1196.93 144.032 1206C144.032 1196.93 152.822 1191.45 157.805 1191.38C146.795 1191.25 144.032 1182.49 144.032 1176Z" fill="#FFE27B"/>
<path d="M144.032 1183.74C144.032 1187.09 142.603 1191.61 136.909 1191.68C139.486 1191.72 144.032 1194.54 144.032 1199.23C144.032 1194.54 148.578 1191.72 151.156 1191.68C145.461 1191.61 144.032 1187.09 144.032 1183.74Z" fill="#FFFDE8"/>
</g>
<g filter="url(#filter13_d_495_57)">
<path d="M52.4998 1146C52.4998 1149.47 51.023 1154.15 45.1387 1154.22C47.802 1154.26 52.4998 1157.19 52.4998 1162.03C52.4998 1157.19 57.1976 1154.26 59.8609 1154.22C53.9766 1154.15 52.4998 1149.47 52.4998 1146Z" fill="#FFE27B"/>
<path d="M52.4998 1150.14C52.4998 1151.93 51.736 1154.34 48.6924 1154.38C50.0699 1154.4 52.4998 1155.91 52.4998 1158.41C52.4998 1155.91 54.9297 1154.4 56.3073 1154.38C53.2637 1154.34 52.4998 1151.93 52.4998 1150.14Z" fill="#FFFDE8"/>
</g>
</g>
</g>
</svg>
