<svg width="958" height="804" viewBox="0 0 958 804" fill="none" xmlns="http://www.w3.org/2000/svg">
<rect width="195" height="90" transform="translate(27 568)" fill="white" fill-opacity="0.3"/>
<path d="M65 600L73.6603 622.5H56.3397L65 600Z" fill="#FF7E36"/>
<ellipse cx="105" cy="613.5" rx="9" ry="5.5" fill="#FF7E36"/>
<rect x="136" y="609" width="17" height="8" rx="1" fill="#FF7E36"/>
<circle cx="185" cy="613" r="7" fill="#FF7E36"/>
<rect width="350" height="169" transform="translate(261 529)" fill="white" fill-opacity="0.3"/>
<path d="M327 576C327 582.075 321.404 587 314.5 587C307.596 587 302 582.075 302 576" stroke="#8C501D" stroke-width="3" stroke-linecap="round"/>
<ellipse cx="314.5" cy="641.5" rx="6.5" ry="7.5" fill="#8C501D"/>
<path d="M395 638.653C397 636.653 399.5 636.253 401.5 638.653C404 641.653 401 644.653 398 644.153C401.667 645.82 401.784 647.977 401 649.153C400 650.653 397 651.153 395 649.153" stroke="#8C501D" stroke-width="2" stroke-linecap="round" stroke-linejoin="round"/>
<path d="M415 576C415 582.075 406.493 587 396 587C385.507 587 377 582.075 377 576" stroke="#8C501D" stroke-width="3" stroke-linecap="round"/>
<path d="M477 648C487.493 648 496 642.075 496 636C496 636 484 638 477 638C470 638 457.5 636 457.5 636C457.5 642.075 466.507 648 477 648Z" fill="white" fill-opacity="0.9" stroke="#8C501D" stroke-width="3" stroke-linecap="round" stroke-linejoin="round"/>
<path d="M556.34 638.837C560.84 638.837 565.34 637.337 570.34 637.337C578.34 639.837 574.507 645.67 570.34 646.837C571.84 650.837 569.34 654.337 566.84 653.337C564.34 652.337 565.84 648.337 564.34 646.837C563.065 645.562 548.34 648.337 543.84 645.837C539.34 643.337 540.84 637.837 543.84 636.337C546.84 634.837 551.84 638.837 556.34 638.837Z" fill="white" fill-opacity="0.9" stroke="#8C501D" stroke-width="3" stroke-linecap="round" stroke-linejoin="round"/>
<path d="M451 576C453.333 578.667 459.4 584 465 584C470.6 584 475 580.667 476.5 579C478 580.667 482.4 584 488 584C493.6 584 499.667 578.667 502 576" stroke="#8C501D" stroke-width="3" stroke-linecap="round" stroke-linejoin="round"/>
<path d="M577 578C577 581.314 568.493 584 558 584C547.507 584 539 581.314 539 578" stroke="#8C501D" stroke-width="3" stroke-linecap="round"/>
<path d="M552 589V584H564V589H552Z" fill="white" stroke="#8C501D" stroke-width="2" stroke-linecap="round" stroke-linejoin="round"/>
<rect width="881" height="362" transform="translate(27 45)" fill="white" fill-opacity="0.3"/>
<path d="M826.849 170.249C833.041 171.867 835.361 174.249 835.849 176.249C836.338 178.249 836.599 181.249 834.849 188.249C833.349 194.249 831.349 202.249 821.349 205.249C811.349 208.249 805.163 206.249 801.663 204.691C797.76 202.954 795.764 200.989 795.252 195.794C794.74 190.599 797.439 179.409 805.163 173.788C812.886 168.166 819.094 168.222 826.849 170.249Z" fill="white" stroke="#8C501D" stroke-width="2"/>
<path d="M724.207 170.249C718.015 171.867 715.695 174.249 715.207 176.249C714.719 178.249 714.457 181.249 716.207 188.249C717.707 194.249 719.707 202.249 729.707 205.249C739.707 208.249 745.894 206.249 749.393 204.691C753.296 202.954 755.292 200.989 755.804 195.794C756.316 190.599 753.617 179.409 745.894 173.788C738.17 168.166 731.962 168.222 724.207 170.249Z" fill="white" stroke="#8C501D" stroke-width="2"/>
<path fill-rule="evenodd" clip-rule="evenodd" d="M829.259 170.981C828.53 170.724 827.729 170.478 826.849 170.249C826.365 170.122 825.888 170.003 825.415 169.893C824.739 169.798 824.049 169.749 823.349 169.749C814.513 169.749 807.349 177.584 807.349 187.249C807.349 196.73 814.243 204.45 822.848 204.74C831.556 201.421 833.427 193.936 834.849 188.249C836.567 181.378 836.346 178.361 835.876 176.36C834.151 173.989 831.875 172.119 829.259 170.981Z" fill="#8C501D"/>
<path fill-rule="evenodd" clip-rule="evenodd" d="M739.796 170.359C732.999 172.378 728 179.175 728 187.249C728 196.914 735.163 204.749 744 204.749C748.085 204.749 751.812 203.074 754.639 200.319C755.237 199.141 755.618 197.681 755.804 195.794C756.316 190.599 753.617 179.409 745.894 173.788C743.768 172.241 741.756 171.123 739.796 170.359Z" fill="#8C501D"/>
<path d="M822.314 249.951C832.059 253.101 837.431 263.332 834.381 272.768L834.372 272.794L834.366 272.82C833.628 275.609 831.849 278.785 828.524 281.108C825.207 283.425 820.263 284.955 813.081 284.3C809.759 283.998 805.592 283.169 802.107 282.107C800.364 281.575 798.821 280.995 797.652 280.408C797.067 280.114 796.599 279.83 796.251 279.563C795.892 279.288 795.723 279.077 795.658 278.95C795.587 278.813 795.508 278.527 795.475 278.036C795.443 277.562 795.46 276.973 795.523 276.282C795.649 274.903 795.952 273.213 796.355 271.415C797.159 267.823 798.334 263.905 799.171 261.397L799.174 261.388C802.225 251.952 812.569 246.8 822.314 249.951Z" fill="white" stroke="#8C501D" stroke-width="2"/>
<path d="M729.883 249.951C720.138 253.101 714.766 263.332 717.816 272.768L717.825 272.794L717.831 272.82C718.569 275.609 720.348 278.785 723.673 281.108C726.99 283.425 731.934 284.955 739.116 284.3C742.438 283.998 746.605 283.169 750.09 282.107C751.833 281.575 753.376 280.995 754.545 280.408C755.13 280.114 755.599 279.83 755.946 279.563C756.305 279.288 756.474 279.077 756.539 278.95C756.61 278.813 756.689 278.527 756.722 278.036C756.754 277.562 756.738 276.973 756.675 276.282C756.548 274.903 756.245 273.213 755.842 271.415C755.038 267.823 753.863 263.905 753.026 261.397L753.023 261.388C749.972 251.952 739.628 246.8 729.883 249.951Z" fill="white" stroke="#8C501D" stroke-width="2"/>
<path fill-rule="evenodd" clip-rule="evenodd" d="M820.512 248.44C812.796 250.143 807 257.385 807 266.061C807 275.911 814.473 283.914 823.744 284.059C833.312 280.524 836.104 273.44 836.14 268.248C836.725 258.664 829.911 250.294 820.512 248.44Z" fill="#8C501D"/>
<path fill-rule="evenodd" clip-rule="evenodd" d="M741.693 248.955C747.348 250.762 752.041 255.101 753.974 261.08C755.662 266.139 758.717 276.888 757.429 279.406C756.57 281.086 751.767 282.871 746.649 284.057C737.422 283.859 730 275.878 730 266.061C730 258.082 734.903 251.315 741.693 248.955Z" fill="#8C501D"/>
<line x1="716.411" y1="250.906" x2="720.927" y2="254.857" stroke="#8C501D" stroke-width="2" stroke-linecap="round"/>
<line x1="712.225" y1="258.293" x2="718.02" y2="259.846" stroke="#8C501D" stroke-width="2" stroke-linecap="round"/>
<line x1="1" y1="-1" x2="7" y2="-1" transform="matrix(-0.752577 0.658505 0.658505 0.752577 837.021 251)" stroke="#8C501D" stroke-width="2" stroke-linecap="round"/>
<line x1="1" y1="-1" x2="7" y2="-1" transform="matrix(-0.965926 0.258819 0.258819 0.965926 841.021 259)" stroke="#8C501D" stroke-width="2" stroke-linecap="round"/>
<path fill-rule="evenodd" clip-rule="evenodd" d="M742 132C749.18 132 755 126.18 755 119C755 117.99 754.885 117.008 754.667 116.064C751.331 113.066 744.841 109 736.797 109C735.642 109 734.513 109.084 733.417 109.236C730.709 111.619 729 115.11 729 119C729 126.18 734.82 132 742 132Z" fill="black"/>
<path d="M716 117C718.773 114 726.814 108 736.797 108C746.78 108 754.425 114 757 117" stroke="#8C501D" stroke-width="4" stroke-linecap="round"/>
<path fill-rule="evenodd" clip-rule="evenodd" d="M821 132C828.18 132 834 126.18 834 119C834 117.99 833.885 117.008 833.667 116.064C830.331 113.066 823.841 109 815.797 109C814.642 109 813.513 109.084 812.417 109.236C809.709 111.619 808 115.11 808 119C808 126.18 813.82 132 821 132Z" fill="black"/>
<path d="M795 117C797.773 114 805.814 108 815.797 108C825.78 108 833.425 114 836 117" stroke="#8C501D" stroke-width="4" stroke-linecap="round"/>
<path d="M715.5 117C714.5 116.833 712.4 115.8 712 113" stroke="#8C501D" stroke-width="4" stroke-linecap="round"/>
<path d="M836 117C837 116.833 839.1 115.8 839.5 113" stroke="#8C501D" stroke-width="4" stroke-linecap="round"/>
<path d="M822.314 323.951C832.059 327.101 837.431 337.332 834.381 346.768L834.372 346.794L834.366 346.82C833.628 349.609 831.849 352.785 828.524 355.108C825.207 357.425 820.263 358.955 813.081 358.3C809.759 357.998 805.592 357.169 802.107 356.107C800.364 355.575 798.821 354.995 797.652 354.408C797.067 354.114 796.599 353.83 796.251 353.563C795.892 353.288 795.723 353.077 795.658 352.95C795.587 352.813 795.508 352.527 795.475 352.036C795.443 351.562 795.46 350.973 795.523 350.282C795.649 348.903 795.952 347.213 796.355 345.415C797.159 341.823 798.334 337.905 799.171 335.397L799.174 335.388C802.225 325.952 812.569 320.8 822.314 323.951Z" fill="white" stroke="#8C501D" stroke-width="2"/>
<path d="M729.883 323.951C720.138 327.101 714.766 337.332 717.816 346.768L717.825 346.794L717.831 346.82C718.569 349.609 720.348 352.785 723.673 355.108C726.99 357.425 731.934 358.955 739.116 358.3C742.438 357.998 746.605 357.169 750.09 356.107C751.833 355.575 753.376 354.995 754.545 354.408C755.13 354.114 755.599 353.83 755.946 353.563C756.305 353.288 756.474 353.077 756.539 352.95C756.61 352.813 756.689 352.527 756.722 352.036C756.754 351.562 756.738 350.973 756.675 350.282C756.548 348.903 756.245 347.213 755.842 345.415C755.038 341.823 753.863 337.905 753.026 335.397L753.023 335.388C749.972 325.952 739.628 320.8 729.883 323.951Z" fill="white" stroke="#8C501D" stroke-width="2"/>
<path fill-rule="evenodd" clip-rule="evenodd" d="M820.512 322.44C812.796 324.144 807 331.386 807 340.061C807 349.911 814.473 357.914 823.744 358.059C833.312 354.525 836.104 347.44 836.14 342.248C836.725 332.664 829.911 324.295 820.512 322.44Z" fill="#8C501D"/>
<path fill-rule="evenodd" clip-rule="evenodd" d="M741.693 322.955C747.348 324.762 752.041 329.101 753.974 335.08C755.662 340.139 758.717 350.888 757.429 353.406C756.57 355.086 751.767 356.871 746.649 358.057C737.422 357.859 730 349.878 730 340.061C730 332.082 734.903 325.315 741.693 322.955Z" fill="#8C501D"/>
<ellipse cx="579.5" cy="265.5" rx="14.5" ry="19.5" fill="#8C501D"/>
<ellipse cx="655.5" cy="265.5" rx="14.5" ry="19.5" fill="#8C501D"/>
<circle cx="575.5" cy="257.5" r="5.5" fill="white"/>
<circle cx="651.5" cy="257.5" r="5.5" fill="white"/>
<ellipse cx="585.5" cy="273" rx="2.5" ry="3" fill="white"/>
<ellipse cx="661.5" cy="273" rx="2.5" ry="3" fill="white"/>
<path d="M564 249C564 249.667 564.7 252.2 565.5 253C566.5 254 568 254.5 569.5 254" stroke="#8C501D" stroke-width="2" stroke-linecap="round"/>
<path d="M640 249C640 249.667 640.7 252.2 641.5 253C642.5 254 644 254.5 645.5 254" stroke="#8C501D" stroke-width="2" stroke-linecap="round"/>
<path fill-rule="evenodd" clip-rule="evenodd" d="M591.862 178.213C592.006 178.742 591.733 179.299 591.251 179.458L563.904 188.462L563.89 188.466C562.66 188.826 560.745 189.082 558.991 188.623C558.104 188.391 557.218 187.965 556.492 187.234C555.756 186.492 555.231 185.482 555.015 184.179C554.925 183.636 555.253 183.115 555.748 183.016C556.243 182.917 556.718 183.278 556.808 183.821C556.956 184.718 557.296 185.329 557.725 185.76C558.163 186.202 558.741 186.501 559.414 186.677C560.775 187.033 562.36 186.842 563.408 186.538L590.727 177.542C591.209 177.383 591.717 177.684 591.862 178.213Z" fill="#8C501D"/>
<path d="M577.322 212C587.638 212 596 202.822 596 191.5C596 186.642 594.461 182.179 591.888 178.666C591.832 179.029 591.594 179.345 591.251 179.458L563.904 188.462L563.89 188.466C562.66 188.826 560.745 189.082 558.991 188.623C558.938 188.609 558.886 188.594 558.833 188.579C558.709 189.533 558.645 190.508 558.645 191.5C558.645 202.822 567.007 212 577.322 212Z" fill="#8C501D"/>
<path fill-rule="evenodd" clip-rule="evenodd" d="M563.65 188.533C563.236 189.261 563 190.103 563 191C563 193.761 565.239 196 568 196C570.762 196 573 193.761 573 191C573 188.969 571.79 187.221 570.051 186.438L563.904 188.462L563.89 188.466C563.813 188.489 563.733 188.511 563.65 188.533Z" fill="white"/>
<path d="M559.179 186.61C561.178 177.649 568.543 171 577.322 171C582.706 171 587.558 173.5 590.966 177.5C590.887 177.502 590.807 177.516 590.727 177.542L563.408 186.538C562.36 186.842 560.775 187.033 559.414 186.677C559.334 186.656 559.256 186.634 559.179 186.61Z" fill="#FFAFA4"/>
<path fill-rule="evenodd" clip-rule="evenodd" d="M642.139 178.213C641.994 178.742 642.267 179.299 642.749 179.458L670.096 188.462L670.11 188.466C671.34 188.826 673.255 189.082 675.009 188.623C675.896 188.391 676.782 187.965 677.508 187.234C678.244 186.492 678.77 185.482 678.985 184.179C679.075 183.636 678.747 183.115 678.252 183.016C677.757 182.917 677.283 183.278 677.193 183.821C677.044 184.718 676.704 185.329 676.276 185.76C675.837 186.202 675.259 186.501 674.586 186.677C673.225 187.033 671.64 186.842 670.592 186.538L643.273 177.542C642.791 177.383 642.283 177.684 642.139 178.213Z" fill="#8C501D"/>
<path d="M656.678 212C646.362 212 638 202.822 638 191.5C638 186.642 639.54 182.179 642.113 178.666C642.168 179.029 642.406 179.345 642.749 179.458L670.096 188.462L670.11 188.466C671.34 188.826 673.255 189.082 675.009 188.623C675.062 188.609 675.115 188.594 675.168 188.579C675.292 189.533 675.356 190.508 675.356 191.5C675.356 202.822 666.993 212 656.678 212Z" fill="#8C501D"/>
<path d="M674.821 186.61C672.823 177.649 665.458 171 656.678 171C651.294 171 646.443 173.5 643.034 177.5C643.113 177.502 643.194 177.516 643.273 177.542L670.593 186.538C671.64 186.842 673.225 187.033 674.586 186.677C674.666 186.656 674.744 186.634 674.821 186.61Z" fill="#FFAFA4"/>
<circle cx="648" cy="191" r="5" fill="white"/>
<mask id="mask0_54_4836" style="mask-type:alpha" maskUnits="userSpaceOnUse" x="633" y="98" width="44" height="39">
<ellipse cx="655" cy="117.5" rx="22" ry="19.5" fill="white"/>
</mask>
<g mask="url(#mask0_54_4836)">
<path d="M655 99C666.715 99 676 107.393 676 117.5C676 127.607 666.715 136 655 136C643.285 136 634 127.607 634 117.5C634 107.393 643.285 99 655 99Z" fill="white" stroke="#8C501D" stroke-width="2"/>
<ellipse cx="660.5" cy="116" rx="17.5" ry="18" fill="#8C501D"/>
<rect x="641.604" y="88.7249" width="45.7598" height="19.0733" transform="rotate(21.9769 641.604 88.7249)" fill="#FFAFA4"/>
</g>
<mask id="mask1_54_4836" style="mask-type:alpha" maskUnits="userSpaceOnUse" x="557" y="98" width="44" height="39">
<ellipse cx="579" cy="117.5" rx="22" ry="19.5" fill="white"/>
</mask>
<g mask="url(#mask1_54_4836)">
<path d="M579 99C590.715 99 600 107.393 600 117.5C600 127.607 590.715 136 579 136C567.285 136 558 127.607 558 117.5C558 107.393 567.285 99 579 99Z" fill="white" stroke="#8C501D" stroke-width="2"/>
<ellipse cx="584.5" cy="116" rx="17.5" ry="18" fill="#8C501D"/>
<rect x="550" y="105.851" width="45.7598" height="19.0733" transform="rotate(-21.98 550 105.851)" fill="#FFAFA4"/>
</g>
<circle cx="18" cy="18" r="17" transform="matrix(1 0 0 -1 404 283)" fill="white" stroke="#8C501D" stroke-width="2"/>
<line x1="1" y1="-1" x2="6" y2="-1" transform="matrix(0 1 1 0 423 282)" stroke="#8C501D" stroke-width="2" stroke-linecap="round"/>
<line x1="1" y1="-1" x2="6" y2="-1" transform="matrix(0.5 0.866025 0.866025 -0.5 433 276.938)" stroke="#8C501D" stroke-width="2" stroke-linecap="round"/>
<line x1="410.866" y1="278.304" x2="408.366" y2="282.634" stroke="#8C501D" stroke-width="2" stroke-linecap="round"/>
<line x1="1" y1="-1" x2="6" y2="-1" transform="matrix(0 1 1 0 494 282)" stroke="#8C501D" stroke-width="2" stroke-linecap="round"/>
<line x1="1" y1="-1" x2="6" y2="-1" transform="matrix(0.5 0.866025 0.866025 -0.5 504 276.938)" stroke="#8C501D" stroke-width="2" stroke-linecap="round"/>
<line x1="481.866" y1="278.304" x2="479.366" y2="282.634" stroke="#8C501D" stroke-width="2" stroke-linecap="round"/>
<circle cx="18" cy="18" r="17" transform="matrix(1 0 0 -1 475 283)" fill="white" stroke="#8C501D" stroke-width="2"/>
<circle cx="424" cy="264" r="11" fill="#8C501D"/>
<circle cx="491" cy="264" r="11" fill="#8C501D"/>
<circle cx="422" cy="191" r="17" fill="white" stroke="#8C501D" stroke-width="2"/>
<line x1="422" y1="173" x2="422" y2="168" stroke="#8C501D" stroke-width="2" stroke-linecap="round"/>
<line x1="432.634" y1="177.696" x2="435.134" y2="173.366" stroke="#8C501D" stroke-width="2" stroke-linecap="round"/>
<line x1="1" y1="-1" x2="6" y2="-1" transform="matrix(-0.5 -0.866025 -0.866025 0.5 410.5 179.062)" stroke="#8C501D" stroke-width="2" stroke-linecap="round"/>
<line x1="493" y1="173" x2="493" y2="168" stroke="#8C501D" stroke-width="2" stroke-linecap="round"/>
<line x1="503.634" y1="177.696" x2="506.134" y2="173.366" stroke="#8C501D" stroke-width="2" stroke-linecap="round"/>
<line x1="1" y1="-1" x2="6" y2="-1" transform="matrix(-0.5 -0.866025 -0.866025 0.5 481.5 179.062)" stroke="#8C501D" stroke-width="2" stroke-linecap="round"/>
<circle cx="493" cy="191" r="17" fill="white" stroke="#8C501D" stroke-width="2"/>
<circle cx="424" cy="190" r="11" fill="#8C501D"/>
<circle cx="491" cy="190" r="11" fill="#8C501D"/>
<circle cx="422" cy="117" r="17" fill="white" stroke="#8C501D" stroke-width="2"/>
<circle cx="493" cy="117" r="17" fill="white" stroke="#8C501D" stroke-width="2"/>
<circle cx="424" cy="116" r="11" fill="#8C501D"/>
<circle cx="491" cy="116" r="11" fill="#8C501D"/>
<path d="M88.7104 336.366C90.4759 338.889 96.2411 343.738 105.177 342.956C114.113 342.174 118.511 336.436 119.592 333.664" stroke="#8C501D" stroke-width="4" stroke-linecap="round"/>
<path d="M159.408 333.664C160.708 336.455 165.544 342.232 174.48 343.014C183.416 343.795 188.743 338.908 190.29 336.366" stroke="#8C501D" stroke-width="4" stroke-linecap="round"/>
<path d="M406.71 342.634C408.476 340.111 414.241 335.262 423.177 336.044C432.113 336.826 436.511 342.564 437.592 345.336" stroke="#8C501D" stroke-width="4" stroke-linecap="round"/>
<path d="M477.408 345.336C478.708 342.545 483.544 336.768 492.48 335.986C501.416 335.205 506.743 340.092 508.29 342.634" stroke="#8C501D" stroke-width="4" stroke-linecap="round"/>
<path d="M247.71 336.366C249.476 338.889 255.241 343.738 264.177 342.956C273.113 342.174 277.511 336.436 278.592 333.664" stroke="#8C501D" stroke-width="4" stroke-linecap="round"/>
<path d="M318.408 333.664C319.708 336.455 324.544 342.232 333.48 343.014C342.416 343.795 347.743 338.908 349.29 336.366" stroke="#8C501D" stroke-width="4" stroke-linecap="round"/>
<line x1="263.5" y1="350.5" x2="263.5" y2="343.5" stroke="#8C501D" stroke-width="3" stroke-linecap="round"/>
<line x1="275.451" y1="347.781" x2="271.951" y2="341.719" stroke="#8C501D" stroke-width="3" stroke-linecap="round"/>
<line x1="250.951" y1="349.281" x2="254.451" y2="343.219" stroke="#8C501D" stroke-width="3" stroke-linecap="round"/>
<line x1="1.5" y1="-1.5" x2="8.5" y2="-1.5" transform="matrix(0 -1 -1 0 332.5 352)" stroke="#8C501D" stroke-width="3" stroke-linecap="round"/>
<line x1="1.5" y1="-1.5" x2="8.5" y2="-1.5" transform="matrix(0.5 -0.866025 -0.866025 -0.5 320 348.33)" stroke="#8C501D" stroke-width="3" stroke-linecap="round"/>
<line x1="1.5" y1="-1.5" x2="8.5" y2="-1.5" transform="matrix(-0.5 -0.866025 -0.866025 0.5 346 351.33)" stroke="#8C501D" stroke-width="3" stroke-linecap="round"/>
<path d="M565.71 342.634C567.476 340.111 573.241 335.262 582.177 336.044C591.113 336.826 595.511 342.564 596.592 345.336" stroke="#8C501D" stroke-width="4" stroke-linecap="round"/>
<path d="M636.408 345.336C637.708 342.545 642.544 336.768 651.48 335.986C660.416 335.205 665.743 340.092 667.29 342.634" stroke="#8C501D" stroke-width="4" stroke-linecap="round"/>
<line x1="1.5" y1="-1.5" x2="8.5" y2="-1.5" transform="matrix(0 1 1 0 583 327)" stroke="#8C501D" stroke-width="3" stroke-linecap="round"/>
<line x1="1.5" y1="-1.5" x2="8.5" y2="-1.5" transform="matrix(-0.5 0.866025 0.866025 0.5 595.5 330.67)" stroke="#8C501D" stroke-width="3" stroke-linecap="round"/>
<line x1="1.5" y1="-1.5" x2="8.5" y2="-1.5" transform="matrix(0.5 0.866025 0.866025 -0.5 569.5 327.67)" stroke="#8C501D" stroke-width="3" stroke-linecap="round"/>
<line x1="652" y1="328.5" x2="652" y2="335.5" stroke="#8C501D" stroke-width="3" stroke-linecap="round"/>
<line x1="640.049" y1="331.219" x2="643.549" y2="337.281" stroke="#8C501D" stroke-width="3" stroke-linecap="round"/>
<line x1="664.549" y1="329.719" x2="661.049" y2="335.781" stroke="#8C501D" stroke-width="3" stroke-linecap="round"/>
<circle cx="20.5" cy="20.5" r="19.5" transform="matrix(1 0 0 -1 157 281)" fill="white" stroke="#8C501D" stroke-width="2"/>
<circle cx="15" cy="15" r="15" transform="matrix(1 0 0 -1 168 275)" fill="#8C501D"/>
<line x1="1" y1="-1" x2="6" y2="-1" transform="matrix(0 1 1 0 178 280)" stroke="#8C501D" stroke-width="2" stroke-linecap="round"/>
<line x1="1" y1="-1" x2="6" y2="-1" transform="matrix(0.5 0.866025 0.866025 -0.5 189 276.34)" stroke="#8C501D" stroke-width="2" stroke-linecap="round"/>
<line x1="166.366" y1="277.706" x2="163.866" y2="282.036" stroke="#8C501D" stroke-width="2" stroke-linecap="round"/>
<circle cx="20.5" cy="20.5" r="19.5" transform="matrix(1 0 0 -1 81 281)" fill="white" stroke="#8C501D" stroke-width="2"/>
<circle cx="15" cy="15" r="15" transform="matrix(1 0 0 -1 92 275)" fill="#8C501D"/>
<line x1="1" y1="-1" x2="6" y2="-1" transform="matrix(0 1 1 0 102 280)" stroke="#8C501D" stroke-width="2" stroke-linecap="round"/>
<line x1="1" y1="-1" x2="6" y2="-1" transform="matrix(0.5 0.866025 0.866025 -0.5 113 276.34)" stroke="#8C501D" stroke-width="2" stroke-linecap="round"/>
<line x1="90.366" y1="277.706" x2="87.866" y2="282.036" stroke="#8C501D" stroke-width="2" stroke-linecap="round"/>
<circle cx="177.5" cy="186.5" r="19.5" fill="white" stroke="#8C501D" stroke-width="2"/>
<circle cx="183" cy="186" r="15" fill="#8C501D"/>
<line x1="177" y1="166" x2="177" y2="161" stroke="#8C501D" stroke-width="2" stroke-linecap="round"/>
<line x1="188.634" y1="169.294" x2="191.134" y2="164.964" stroke="#8C501D" stroke-width="2" stroke-linecap="round"/>
<line x1="1" y1="-1" x2="6" y2="-1" transform="matrix(-0.5 -0.866025 -0.866025 0.5 166 170.66)" stroke="#8C501D" stroke-width="2" stroke-linecap="round"/>
<circle cx="101.5" cy="186.5" r="19.5" fill="white" stroke="#8C501D" stroke-width="2"/>
<circle cx="107" cy="186" r="15" fill="#8C501D"/>
<line x1="101" y1="166" x2="101" y2="161" stroke="#8C501D" stroke-width="2" stroke-linecap="round"/>
<line x1="112.634" y1="169.294" x2="115.134" y2="164.964" stroke="#8C501D" stroke-width="2" stroke-linecap="round"/>
<line x1="1" y1="-1" x2="6" y2="-1" transform="matrix(-0.5 -0.866025 -0.866025 0.5 90 170.66)" stroke="#8C501D" stroke-width="2" stroke-linecap="round"/>
<circle cx="177.5" cy="112.5" r="19.5" fill="white" stroke="#8C501D" stroke-width="2"/>
<circle cx="183" cy="112" r="15" fill="#8C501D"/>
<circle cx="101.5" cy="112.5" r="19.5" fill="white" stroke="#8C501D" stroke-width="2"/>
<circle cx="107" cy="112" r="15" fill="#8C501D"/>
<path d="M260.5 282C271.164 282 280 272.262 280 260C280 247.738 271.164 238 260.5 238C249.836 238 241 247.738 241 260C241 272.262 249.836 282 260.5 282Z" fill="white" stroke="#8C501D" stroke-width="2"/>
<ellipse cx="15" cy="17" rx="15" ry="17" transform="matrix(1 0 0 -1 251 277)" fill="#8C501D"/>
<line x1="1" y1="-1" x2="6" y2="-1" transform="matrix(0 1 1 0 261 282)" stroke="#8C501D" stroke-width="2" stroke-linecap="round"/>
<line x1="1" y1="-1" x2="6" y2="-1" transform="matrix(0.5 0.866025 0.866025 -0.5 272 277.938)" stroke="#8C501D" stroke-width="2" stroke-linecap="round"/>
<line x1="249.866" y1="279.304" x2="247.366" y2="283.634" stroke="#8C501D" stroke-width="2" stroke-linecap="round"/>
<path d="M336.5 282C347.164 282 356 272.262 356 260C356 247.738 347.164 238 336.5 238C325.836 238 317 247.738 317 260C317 272.262 325.836 282 336.5 282Z" fill="white" stroke="#8C501D" stroke-width="2"/>
<ellipse cx="15" cy="17" rx="15" ry="17" transform="matrix(1 0 0 -1 327 277)" fill="#8C501D"/>
<line x1="1" y1="-1" x2="6" y2="-1" transform="matrix(0 1 1 0 337 282)" stroke="#8C501D" stroke-width="2" stroke-linecap="round"/>
<line x1="1" y1="-1" x2="6" y2="-1" transform="matrix(0.5 0.866025 0.866025 -0.5 348 277.938)" stroke="#8C501D" stroke-width="2" stroke-linecap="round"/>
<line x1="325.866" y1="279.304" x2="323.366" y2="283.634" stroke="#8C501D" stroke-width="2" stroke-linecap="round"/>
<path d="M260.5 164C271.164 164 280 173.738 280 186C280 198.262 271.164 208 260.5 208C249.836 208 241 198.262 241 186C241 173.738 249.836 164 260.5 164Z" fill="white" stroke="#8C501D" stroke-width="2"/>
<ellipse cx="266" cy="185" rx="15" ry="17" fill="#8C501D"/>
<line x1="260" y1="163" x2="260" y2="158" stroke="#8C501D" stroke-width="2" stroke-linecap="round"/>
<line x1="271.634" y1="166.696" x2="274.134" y2="162.366" stroke="#8C501D" stroke-width="2" stroke-linecap="round"/>
<line x1="1" y1="-1" x2="6" y2="-1" transform="matrix(-0.5 -0.866025 -0.866025 0.5 249.5 168.062)" stroke="#8C501D" stroke-width="2" stroke-linecap="round"/>
<path d="M336.5 164C347.164 164 356 173.738 356 186C356 198.262 347.164 208 336.5 208C325.836 208 317 198.262 317 186C317 173.738 325.836 164 336.5 164Z" fill="white" stroke="#8C501D" stroke-width="2"/>
<ellipse cx="342" cy="185" rx="15" ry="17" fill="#8C501D"/>
<line x1="336" y1="163" x2="336" y2="158" stroke="#8C501D" stroke-width="2" stroke-linecap="round"/>
<line x1="347.634" y1="166.696" x2="350.134" y2="162.366" stroke="#8C501D" stroke-width="2" stroke-linecap="round"/>
<line x1="1" y1="-1" x2="6" y2="-1" transform="matrix(-0.5 -0.866025 -0.866025 0.5 325.5 168.062)" stroke="#8C501D" stroke-width="2" stroke-linecap="round"/>
<path d="M336.5 90C347.164 90 356 99.7384 356 112C356 124.262 347.164 134 336.5 134C325.836 134 317 124.262 317 112C317 99.7384 325.836 90 336.5 90Z" fill="white" stroke="#8C501D" stroke-width="2"/>
<ellipse cx="342" cy="111" rx="15" ry="17" fill="#8C501D"/>
<path d="M260.5 90C271.164 90 280 99.7384 280 112C280 124.262 271.164 134 260.5 134C249.836 134 241 124.262 241 112C241 99.7384 249.836 90 260.5 90Z" fill="white" stroke="#8C501D" stroke-width="2"/>
<ellipse cx="266" cy="111" rx="15" ry="17" fill="#8C501D"/>
<rect width="259" height="265" transform="translate(649 481)" fill="white" fill-opacity="0.3"/>
<g opacity="0.7">
<ellipse cx="718.5" cy="538.5" rx="12.5" ry="10.5" fill="#FFBAA5"/>
<ellipse cx="838.5" cy="538.5" rx="12.5" ry="10.5" fill="#FFBAA5"/>
</g>
<g opacity="0.7" filter="url(#filter0_f_54_4836)">
<ellipse cx="718.5" cy="638.5" rx="12.5" ry="10.5" fill="#FFBAA5"/>
<ellipse cx="838.5" cy="638.5" rx="12.5" ry="10.5" fill="#FFBAA5"/>
</g>
<g opacity="0.7">
<ellipse cx="718.5" cy="588.5" rx="12.5" ry="10.5" fill="#FF7E36"/>
<ellipse cx="838.5" cy="588.5" rx="12.5" ry="10.5" fill="#FF7E36"/>
</g>
<g opacity="0.7" filter="url(#filter1_f_54_4836)">
<ellipse cx="718.5" cy="688.5" rx="12.5" ry="10.5" fill="#FF7E36"/>
<ellipse cx="838.5" cy="688.5" rx="12.5" ry="10.5" fill="#FF7E36"/>
</g>
<defs>
<filter id="filter0_f_54_4836" x="689" y="618" width="179" height="41" filterUnits="userSpaceOnUse" color-interpolation-filters="sRGB">
<feFlood flood-opacity="0" result="BackgroundImageFix"/>
<feBlend mode="normal" in="SourceGraphic" in2="BackgroundImageFix" result="shape"/>
<feGaussianBlur stdDeviation="2.5" result="effect1_foregroundBlur_54_4836"/>
</filter>
<filter id="filter1_f_54_4836" x="689" y="668" width="179" height="41" filterUnits="userSpaceOnUse" color-interpolation-filters="sRGB">
<feFlood flood-opacity="0" result="BackgroundImageFix"/>
<feBlend mode="normal" in="SourceGraphic" in2="BackgroundImageFix" result="shape"/>
<feGaussianBlur stdDeviation="2.5" result="effect1_foregroundBlur_54_4836"/>
</filter>
</defs>
</svg>
