<?xml version="1.0" encoding="UTF-8" standalone="no"?>
<!DOCTYPE svg PUBLIC "-//W3C//DTD SVG 1.1//EN" "http://www.w3.org/Graphics/SVG/1.1/DTD/svg11.dtd">
<svg width="100%" height="100%" viewBox="0 0 130 47" version="1.1" xmlns="http://www.w3.org/2000/svg" xmlns:xlink="http://www.w3.org/1999/xlink" xml:space="preserve" xmlns:affinity="https://www.affinity.studio/" style="fill-rule:evenodd;clip-rule:evenodd;">
    <g transform="matrix(1,0,0,1,-710.720714,-164.872353)">
        <g id="Olhos_19">
            <path d="M826.849,170.249C833.041,171.867 835.361,174.249 835.849,176.249C836.338,178.249 836.599,181.249 834.849,188.249C833.349,194.249 831.349,202.249 821.349,205.249C811.349,208.249 805.163,206.249 801.663,204.691C797.76,202.954 795.764,200.989 795.252,195.794C794.74,190.599 797.439,179.409 805.163,173.788C812.886,168.166 819.094,168.222 826.849,170.249Z" style="fill:white;fill-rule:nonzero;stroke:rgb(140,80,29);stroke-width:2px;"/>
            <path d="M724.207,170.249C718.015,171.867 715.695,174.249 715.207,176.249C714.719,178.249 714.457,181.249 716.207,188.249C717.707,194.249 719.707,202.249 729.707,205.249C739.707,208.249 745.894,206.249 749.393,204.691C753.296,202.954 755.292,200.989 755.804,195.794C756.316,190.599 753.617,179.409 745.894,173.788C738.17,168.166 731.962,168.222 724.207,170.249Z" style="fill:white;fill-rule:nonzero;stroke:rgb(140,80,29);stroke-width:2px;"/>
            <path d="M829.259,170.981C828.53,170.724 827.729,170.478 826.849,170.249C826.365,170.122 825.888,170.003 825.415,169.893C824.739,169.798 824.049,169.749 823.349,169.749C814.513,169.749 807.349,177.584 807.349,187.249C807.349,196.73 814.243,204.45 822.848,204.74C831.556,201.421 833.427,193.936 834.849,188.249C836.567,181.378 836.346,178.361 835.876,176.36C834.151,173.989 831.875,172.119 829.259,170.981Z" style="fill:rgb(140,80,29);"/>
            <path d="M739.796,170.359C732.999,172.378 728,179.175 728,187.249C728,196.914 735.163,204.749 744,204.749C748.085,204.749 751.812,203.074 754.639,200.319C755.237,199.141 755.618,197.681 755.804,195.794C756.316,190.599 753.617,179.409 745.894,173.788C743.768,172.241 741.756,171.123 739.796,170.359Z" style="fill:rgb(140,80,29);"/>
        </g>
    </g>
</svg>
