<?xml version="1.0" encoding="UTF-8"?>
<svg width="440" height="440" viewBox="0 0 440 440" fill="none" xmlns="http://www.w3.org/2000/svg">

<g id="frame_4" transform="translate(0, 0)">
      <g transform="translate(25.0, 27.071067811865476) rotate(-1.7677669529663689, 230, 240)">
        
        <!-- 1. TAIL GROUP -->
        <g transform="translate(110, 300) rotate(10.983321401091878) translate(-110, -300)">
          <g id="tail_group">
<ns0:g xmlns:ns0="http://www.w3.org/2000/svg">
<ns0:path d="M10.2416 305.449C15.8725 309.532 26.173 313.414 26.173 313.414L42.1044 308.293V282.689C42.1044 282.689 26.9367 285.254 17.6383 288.379C10.5581 290.759 0 295.776 0 295.776C0 295.776 5.78816 302.219 10.2416 305.449Z" fill="#EAB953" />
<ns0:path d="M66.0015 282.687C77.2171 283.582 94.4503 287.239 94.4503 287.239L101.847 295.773C101.847 295.773 95.1748 303.759 89.8985 307.722C73.7665 319.839 59.0794 321.739 39.2595 317.963C32.8398 316.741 23.3281 312.843 23.3281 312.843L35.2767 307.722L28.4489 302.032L25.604 291.791C25.604 291.791 31.8657 286.313 36.9836 283.824C42.1004 281.335 54.7052 281.786 66.0015 282.687Z" fill="#F5EEE5" />
</ns0:g>
<ns0:g xmlns:ns0="http://www.w3.org/2000/svg">
<ns0:path d="M20.4521 346.032C26.8178 348.836 37.7053 350.457 37.7053 350.457L52.1979 342.091L46.7964 317.063C46.7964 317.063 32.5112 322.77 24.0813 327.786C17.6625 331.606 8.4004 338.737 8.4004 338.737C8.4004 338.737 15.4175 343.814 20.4521 346.032Z" fill="#EAB953" />
<ns0:path d="M70.155 312.02C81.307 310.528 98.9239 310.468 98.9239 310.468L107.955 317.25C107.955 317.25 103.117 326.463 98.7957 331.45C85.5831 346.698 71.6271 351.653 51.4569 352.144C44.9238 352.303 34.8038 350.499 34.8038 350.499L45.4032 342.973L37.5288 338.852L32.5873 329.441C32.5873 329.441 37.5524 322.766 42.0301 319.253C46.5068 315.741 58.9229 313.522 70.155 312.02Z" fill="#F5EEE5" />
</ns0:g>
<ns0:g xmlns:ns0="http://www.w3.org/2000/svg">
<ns0:path d="M71.8117 372.424C77.694 371.996 86.4936 368.885 86.4936 368.885L94.0261 356.861L80.0382 340.259C80.0382 340.259 71.6045 350.209 67.2826 357.315C63.9917 362.726 59.8867 371.747 59.8867 371.747C59.8867 371.747 67.1595 372.762 71.8117 372.424Z" fill="#EAB953" />
<ns0:path d="M95.5328 327.204C103.294 321.657 116.466 314.613 116.466 314.613L125.925 316.106C125.925 316.106 125.961 324.929 124.705 330.382C120.865 347.052 112.379 356.307 97.4652 364.687C92.6346 367.402 84.3375 370.07 84.3375 370.07L89.2875 360.222L81.7519 360.263L74.3121 355.177C74.3121 355.177 75.3797 348.204 77.3384 343.794C79.2967 339.385 87.7158 332.791 95.5328 327.204Z" fill="#F5EEE5" />
</ns0:g>
<ns0:g xmlns:ns0="http://www.w3.org/2000/svg">
<ns0:path d="M88.1915 287.091C91.7417 286.903 97.2951 287.091 97.2951 287.091L103.554 294.488C103.554 294.488 92.4797 301.393 84.7776 300.747C80.854 300.418 78.7096 299.486 75.105 297.902C71.5465 296.338 66.5703 292.781 66.5703 292.781C66.5703 292.781 71.6011 289.917 75.105 288.798C80.0148 287.231 83.0448 287.364 88.1915 287.091Z" fill="white" />
</ns0:g>
<ns0:g xmlns:ns0="http://www.w3.org/2000/svg">
<ns0:path d="M92.2134 297.154C96.4838 295.788 103.338 294.34 103.338 294.34L113.657 302.965C113.657 302.965 105.175 315.59 95.5293 317.048C90.6159 317.791 85.1021 317.779 80.1253 316.631C75.2123 315.499 67.8472 311.959 67.8472 311.959C67.8472 311.959 72.9606 306.315 76.8383 303.635C82.2721 299.88 86.0228 299.134 92.2134 297.154Z" fill="white" />
</ns0:g>
<ns0:g xmlns:ns0="http://www.w3.org/2000/svg">
<ns0:path d="M107.163 306.906C110.022 303.902 113.226 301.886 113.226 301.886L132.003 311.558C132.003 311.558 126.182 320.402 118.851 325.675C115.116 328.361 112.27 328.943 107.465 329.901C102.723 330.846 94.6227 330.552 94.6227 330.552C94.6227 330.552 95.8903 323.235 97.712 319.171C100.265 313.477 103.019 311.26 107.163 306.906Z" fill="white" />
</ns0:g>

</g>
        </g>

        <!-- 2. FAR BACK LEG -->
        <g transform="translate(210, 280) rotate(5.978134754234993) translate(-210, -280)">
          <g id="far_back_leg">
<ns0:g xmlns:ns0="http://www.w3.org/2000/svg">
<ns0:path d="M224.423 255.971C241.121 255.971 254.658 272.68 254.658 293.292C254.658 305.13 250.191 315.679 243.226 322.517L243.32 322.582C243.32 322.582 233.653 330.94 226.785 335.338C220.113 339.61 216.254 342.013 208.833 344.786C204.513 346.4 201.395 346.826 200.798 351.399C195.125 394.862 231.51 395.808 188.992 412.343C185.026 413.885 166.227 412.879 165.369 408.562C151.194 337.227 186.156 330.614 188.992 327.307C192.27 323.485 194.644 320.98 195.133 315.969C195.498 312.224 193.569 310.268 193.243 306.52C192.914 302.736 193.57 297.761 194.197 294.17C194.192 293.878 194.188 293.585 194.188 293.292C194.188 272.68 207.725 255.971 224.423 255.971Z" fill="#5881B4" />
</ns0:g>
<ns0:g xmlns:ns0="http://www.w3.org/2000/svg">
<ns0:path d="M215.881 410.827C215.291 404.086 213.684 397.713 211.413 393.11C209.143 388.506 206.395 386.048 203.774 386.278C201.153 386.507 198.873 389.405 197.437 394.333C196 399.261 195.525 405.816 196.115 412.556L205.998 411.691L215.881 410.827Z" fill="#BBAFAF" />
</ns0:g>
<ns0:g xmlns:ns0="http://www.w3.org/2000/svg">
<ns0:path d="M201.745 413.582C201.745 407.317 200.401 401.309 198.009 396.879C195.617 392.45 192.373 389.961 188.99 389.961C185.607 389.961 182.362 392.45 179.97 396.879C177.578 401.309 176.234 407.317 176.234 413.582L188.99 413.582H201.745Z" fill="#D9D9D9" />
</ns0:g>

</g>
        </g>

        <!-- 3. FAR FRONT LEG -->
        <g transform="translate(305, 275) rotate(7.6763970398783234) translate(-305, -275)">
          <g id="far_front_leg">
<ns0:g xmlns:ns0="http://www.w3.org/2000/svg">
<ns0:path d="M291.643 270.442C296.197 253.785 308.284 242.577 318.641 245.408C328.999 248.24 333.703 264.039 329.149 280.696C327.01 288.522 323.207 295.143 318.703 299.673C317.212 303.307 315.339 308.299 314.506 312.269C311.494 326.616 315.322 335.186 317.422 349.694C318.499 357.138 318.776 361.414 320.824 368.65C324.316 380.986 334.92 398.299 334.92 398.299L310.618 409.478C310.618 409.478 305.962 411.293 302.841 411.908C297.254 413.009 293.166 414.798 288.26 411.908C284.888 409.922 284.01 407.452 281.941 404.131C274.097 391.539 277.906 373.024 278.051 367.191C278.507 348.809 282.074 337.56 285.829 319.56C287.429 311.887 290.201 301.578 291.967 295.224C289.438 288.587 289.127 279.646 291.643 270.442Z" fill="#5881B4" />
</ns0:g>
<ns0:g xmlns:ns0="http://www.w3.org/2000/svg">
<ns0:path d="M340.712 411.504C340.105 404.569 338.452 398.012 336.116 393.276C333.78 388.539 330.953 386.011 328.256 386.247C325.559 386.483 323.214 389.464 321.736 394.534C320.258 399.605 319.769 406.349 320.376 413.283L330.544 412.393L340.712 411.504Z" fill="#BBAFAF" />
</ns0:g>
<ns0:g xmlns:ns0="http://www.w3.org/2000/svg">
<ns0:path d="M326.169 414.337C326.169 407.892 324.787 401.711 322.326 397.153C319.864 392.596 316.527 390.035 313.046 390.035C309.566 390.035 306.228 392.596 303.767 397.153C301.305 401.711 299.923 407.892 299.923 414.337L313.046 414.337H326.169Z" fill="#BBAFAF" />
</ns0:g>

</g>
        </g>

        <!-- 4. FAR WING (Fixed on right at body base, pivoting only tips) -->
        <g transform="translate(282.0, 200.0) rotate(8.81370849898476) translate(-282.0, -200.0)">
          <g id="far_wing">
            <ns0:g xmlns:ns0="http://www.w3.org/2000/svg">
<ns0:path d="M224.696 210.73L228.305 204.577L242.193 207.533L236.792 212.579C236.792 212.579 232.684 213.21 230.119 212.745C227.896 212.342 224.696 210.73 224.696 210.73Z" fill="#E3A93D" />
<ns0:path d="M207.402 184.909L223.483 177.22L242.782 194.087L230.375 201.379C230.375 201.379 226.337 201.707 223.846 201.157C219.519 200.203 217.323 198.383 214.108 195.335C210.594 192.005 207.402 184.909 207.402 184.909Z" fill="#E3A93D" />
<ns0:path d="M214.83 175.595C219.609 179.934 230.323 181.351 230.323 181.351L243.781 170.042C243.781 170.042 229.573 157.271 218.152 154.791C214.335 153.962 204.66 157.885 204.66 157.885C204.66 157.885 206.912 166.232 208.91 168.989C210.658 171.401 211.914 172.947 214.83 175.595Z" fill="#F2EFEC" />
<ns0:path d="M231.005 202.053L256.603 191.287L277.053 205.056C277.053 205.056 264.867 221.246 263.517 222.507C262.167 223.769 257.582 226.997 255.737 224.465C255.128 223.63 255.086 222.971 254.907 221.953C254.616 220.294 255.184 217.648 255.184 217.648C255.184 217.648 252.583 221.09 249.54 222.163C247.324 222.944 245.172 223.39 243.542 221.697C242.04 220.138 242.476 218.3 242.945 216.186C243.444 213.93 246.121 211.195 246.121 211.195L236.792 212.578C236.792 212.578 236.21 209.881 235.232 208.472C233.462 205.922 228.304 204.576 228.304 204.576L231.005 202.053Z" fill="#EFEEEB" />
<ns0:g>
<ns0:path d="M234.494 172.495C242.812 171.17 256.019 173.88 256.019 173.88L265.357 191.455L232.067 201.567C232.067 201.567 229.276 200.246 227.707 199.066C223.989 196.266 222.302 193.79 220.714 189.415C219.087 184.933 219.952 177.23 219.952 177.23C219.952 177.23 228.595 173.434 234.494 172.495Z" fill="#F2EFEC" />
</ns0:g>
<ns0:g>
<ns0:path d="M222.137 132.199L255.225 151.104L261.2 159.936L264.951 168.823L266.61 173.848C266.61 173.848 243.47 178.973 231.495 172.262C227.355 169.942 221.945 164.747 221.945 164.747C221.945 164.747 219.302 155.622 219.191 149.618C219.064 142.72 222.137 132.199 222.137 132.199Z" fill="#F2EFEC" />
</ns0:g>
<ns0:g>
<ns0:path d="M257.05 162.805C260.092 165.044 264.42 169.07 264.42 169.07L278.648 204.33C278.648 204.33 274.211 209.297 270.447 210.98C268.768 211.731 267.26 212.44 266.198 212.927C265.135 213.414 262.733 213.736 261.505 212.507C260.219 211.22 260.806 209.643 261.514 207.737L261.539 207.67C262.044 206.309 263.221 204.328 263.221 204.328C263.221 204.328 260.863 205.324 259.259 205.501C257.275 205.72 255.471 206.458 254.179 204.936C252.786 203.295 253.638 201.649 254.357 199.712C255.088 197.746 256.759 194.434 256.759 194.434C256.759 194.434 253.811 194.354 251.923 194.4C249.699 194.455 248.669 194.279 247.662 192.817C246.761 191.508 246.959 190.28 247.408 188.756C247.941 186.944 250.54 185.071 250.54 185.071C250.54 185.071 246.185 185.154 243.912 183.93C242.154 182.984 240.767 181.77 240.127 179.88C239.454 177.893 240.936 175.331 241.755 174.313C243.698 171.897 248.804 170.761 248.804 170.761C248.804 170.761 243.546 168.15 242.065 165.171C240.683 162.392 239.269 159.147 241.557 157.049C243.55 155.221 245.907 156.018 248.618 157.026C252.326 158.404 253.864 160.46 257.05 162.805Z" fill="#F2EFEC" />
</ns0:g>
<ns0:g>
<ns0:path d="M274.224 180.645C278.118 187.543 286.219 197.002 286.219 197.002L277.73 204.427C277.73 204.427 270.673 193.16 267.661 185.259C264.601 177.229 265.743 171.804 262.374 163.899C260.129 158.635 255.226 151.105 255.226 151.105C255.226 151.105 262.642 156.357 266.137 160.89C271.227 167.491 270.127 173.385 274.224 180.645Z" fill="#8AB5E7" />
</ns0:g>
<ns0:path d="M216.423 161.813L221.945 164.746C221.945 164.746 219.367 154.322 219.523 147.537C219.663 141.463 222.137 132.199 222.137 132.199L210.904 128.026C210.904 128.026 208.958 132.242 208.458 134.61C207.279 140.192 210.581 149.064 210.581 149.064L216.423 161.813Z" fill="#E3A93D" />
</ns0:g>

          </g>
        </g>

        <!-- 5. BODY & BELLY -->
        <g id="body_torso">
<ns0:path xmlns:ns0="http://www.w3.org/2000/svg" d="M305 297.471C306.842 300.419 310.5 304.471 310.5 304.471C310.5 304.471 300.027 313.155 292 315.971C276.836 321.29 266.894 314.844 251 312.471C244.332 311.475 233.5 308.971 233.5 308.971C233.5 308.971 219.242 305.142 209.5 304.471C197.366 303.634 189.969 301.923 178.5 305.971C170 308.971 168.21 310.496 160 311.971C151.716 313.458 145.5 314.971 136.5 314.971C133.321 314.971 129.5 314.471 126 313.471C122.5 312.471 109.5 305.471 109.5 305.471L170 275.971L297 277.971C297 277.971 299.385 285.733 301.5 290.471C302.746 293.262 303.381 294.878 305 297.471Z" fill="#F5EFE4" />
<ns0:g xmlns:ns0="http://www.w3.org/2000/svg">
<ns0:path d="M328.5 229.971C326.5 218.971 323.179 207.753 326 196.471C328 188.471 334 182.971 334 182.971L283.5 168.471C283.5 168.471 285.628 181.551 283.5 189.471C281.982 195.122 280.311 201.971 278 204.471C274.604 208.144 270.158 210.852 267.633 212.39L267.5 212.471C265 213.994 254.857 218.399 246.5 220.971C233.5 224.971 228.298 224.427 217 227.971C205.79 231.487 199.593 233.89 189 238.971C176.53 244.952 169.838 249.05 158.5 256.971C149.725 263.101 146.122 268.371 137 273.971C130.302 278.082 126.64 281.127 119 282.971C111.028 284.895 106.185 283.491 98 282.971C90.1446 282.472 78 280.471 78 280.471C78 280.471 83.3151 288.203 87.5 292.471C92.0692 297.13 94.8491 299.706 100.5 302.971C108.307 307.48 113.59 308.59 122.5 309.971C131.376 311.346 136.924 312.641 145.5 309.971C151.005 308.256 153.462 305.776 158.5 302.971C165.61 299.011 169.292 296.248 176.5 292.471C186.721 287.115 192.094 282.218 203.5 280.471C217.208 278.371 224.685 285.257 238.5 286.471C262.658 288.593 301 311.971 310.5 303.971C320 295.971 326.5 279.471 328.5 271.971C330.5 264.471 332 262.971 332 253.471C332 243.971 330.5 240.971 328.5 229.971Z" fill="#7EACE5" />
</ns0:g>
<ns0:path xmlns:ns0="http://www.w3.org/2000/svg" d="M328 227.471L312 216.471C312 216.471 310.717 198.19 314.5 187.471C315.489 184.666 317.5 180.471 317.5 180.471L334 182.471C334 182.471 327.616 192.95 326 200.471C323.778 210.808 328 227.471 328 227.471Z" fill="#F5EFE4" />
<ns0:path xmlns:ns0="http://www.w3.org/2000/svg" d="M328.5 230.971L311.5 219.971L310.5 252.971C310.5 252.971 315.278 257.948 318.5 260.971C322.64 264.854 329.5 270.471 329.5 270.471C329.5 270.471 331.72 262.325 332 256.971C332.317 250.898 331.914 247.483 331 241.471C330.373 237.344 328.5 230.971 328.5 230.971Z" fill="#F5EFE4" />
<ns0:path xmlns:ns0="http://www.w3.org/2000/svg" d="M319.5 265.971C315.546 262.478 310.5 255.971 310.5 255.971L288.5 307.971C288.5 307.971 293.555 308.781 299.5 307.971C310.5 306.471 311.5 302.971 311.5 302.971C311.5 302.971 318.252 296.134 321.5 290.971C325.554 284.525 329 272.971 329 272.971C329 272.971 322.991 269.054 319.5 265.971Z" fill="#F5EFE4" />

</g>

        <!-- 6. HEAD GROUP -->
        <g transform="translate(1.4142135623730951, -1.0606601717798212) translate(310, 160) rotate(-2.15667568261897) translate(-310, -160)">
          <g id="head_group">
<ns0:g xmlns:ns0="http://www.w3.org/2000/svg">
<ns0:path d="M307.904 7.94264L322.693 28.9463L304.885 30.045L307.904 7.94264Z" fill="#EEBD5C" />
</ns0:g>
<ns0:g xmlns:ns0="http://www.w3.org/2000/svg">
<ns0:path d="M322.69 28.9432L336.96 54.2201L306.111 55.2183L304.882 30.0418C304.882 30.0418 309.647 28.2585 312.934 27.9834C316.657 27.6719 322.69 28.9432 322.69 28.9432Z" fill="#F7F1E8" />
</ns0:g>
<ns0:g xmlns:ns0="http://www.w3.org/2000/svg">
<ns0:path d="M338.871 54.637L343.982 63.6914C343.982 63.6914 330.981 60.8129 322.878 61.178C314.551 61.5532 302.428 65.7581 302.428 65.7581L304.416 55.1832C304.416 55.1832 314.229 51.9605 320.946 51.8209C327.85 51.6775 338.871 54.637 338.871 54.637Z" fill="#8EBAF0" />
</ns0:g>
<ns0:g xmlns:ns0="http://www.w3.org/2000/svg">
<ns0:path d="M318.002 54.9688C350.587 54.9688 377.002 83.3987 377.002 118.469C377.002 125.38 375.975 132.034 374.078 138.263C374.366 140.379 374.944 142.412 376.001 143.969C378.023 146.948 379.788 148.344 383.001 149.969C386.726 151.852 389.333 152.206 393.501 151.969C396.716 151.786 401.501 149.969 401.501 149.969C401.501 149.969 401.985 156.094 401.501 159.969C400.949 164.387 400.229 166.865 398.501 170.969C396.147 176.559 394.86 180.338 390.001 183.969C385.4 187.406 381.666 187.528 376.001 188.469C364.124 190.441 357.523 184.629 345.501 183.969C338.287 183.572 334.122 185.188 327.001 183.969C323.82 183.424 319.165 182.503 316.374 181.944C284.542 181.016 259.002 152.953 259.002 118.469C259.002 83.3987 285.417 54.9688 318.002 54.9688Z" fill="#7DACE5" />
</ns0:g>
<ns0:ellipse xmlns:ns0="http://www.w3.org/2000/svg" cx="302.828" cy="153.786" rx="16.2317" ry="24.8902" transform="rotate(-39.5267 302.828 153.786)" fill="#FCBBC6" />
<ns0:g xmlns:ns0="http://www.w3.org/2000/svg">
<ns0:path d="M307.044 90.2578C314.755 96.3287 325.94 105.623 333.104 113.759C340.733 122.425 349.688 136.465 353.255 142.213C347.48 149.684 339.241 154.359 330.093 154.359C312.626 154.359 298.467 137.324 298.467 116.31C298.467 106.23 301.726 97.0659 307.044 90.2578Z" fill="white" />
</ns0:g>
<ns0:path xmlns:ns0="http://www.w3.org/2000/svg" d="M326.969 106.879C330.745 110.533 334.673 114.537 337.682 118.098C340.807 121.796 344.283 126.605 347.32 131.026C345.377 139.489 338.927 145.667 331.352 145.567C322.346 145.449 315.162 136.505 315.306 125.589C315.422 116.738 320.32 109.31 326.969 106.879Z" fill="black" />
<ns0:g xmlns:ns0="http://www.w3.org/2000/svg">
<ns0:path d="M270.005 3.07749L291.997 25.0056L271.019 30.0279L270.005 3.07749Z" fill="#EEBD5C" />
</ns0:g>
<ns0:g xmlns:ns0="http://www.w3.org/2000/svg">
<ns0:path d="M291.994 25.0042L314.259 52.1295L277.73 59.7516L271.016 30.0264C271.016 30.0264 276.319 26.9089 280.176 25.8959C284.544 24.7485 291.994 25.0042 291.994 25.0042Z" fill="#F7F1E8" />
</ns0:g>
<ns0:g xmlns:ns0="http://www.w3.org/2000/svg">
<ns0:path d="M316.621 52.2244L324.597 61.9409C324.597 61.9409 308.514 61.2244 298.94 63.349C289.102 65.5324 275.542 73.0681 275.542 73.0681L275.704 60.0603C275.704 60.0603 286.718 54.1761 294.688 52.6089C302.88 50.9983 316.621 52.2244 316.621 52.2244Z" fill="#8EBAF0" />
</ns0:g>
<ns0:g xmlns:ns0="http://www.w3.org/2000/svg">
<ns0:path d="M282.993 131.409C282.993 131.409 281.993 133.337 280.493 134.409C278.993 135.481 272.832 132.403 268.493 129.909C263.333 126.943 260.736 124.536 256.993 119.909C253.855 116.029 251.81 111.289 250.493 108.909C248.003 104.409 245.164 95.3267 245.494 86.4082C245.768 79.0216 247.569 71.4082 248.992 67.9082C251.2 62.4787 253.253 58.3574 257.993 54.9088C261.94 52.0366 265.149 50.8017 269.993 51.4088C274.679 51.9962 277.732 54.0504 281.492 56.9082C284.243 58.9986 285.448 60.319 286.993 63.4088C288.538 66.4986 291.259 72.551 293.993 78.4088C293.993 78.4088 291.486 77.9494 289.993 78.4088C287.617 79.1397 285.492 82.1868 284.492 83.4082C283.492 84.6296 281.824 87.7951 280.493 91.4088C278.726 96.2042 278.993 104.409 278.993 104.409C278.993 104.409 279.351 114.54 280.493 120.909C281.236 125.058 282.993 131.409 282.993 131.409Z" fill="#7DACE5" />
</ns0:g>
<ns0:path xmlns:ns0="http://www.w3.org/2000/svg" d="M367.467 183.473C363.009 181.124 356.967 175.973 356.967 175.973C356.967 175.973 362.099 182.319 366.467 184.973C370.217 187.251 376.467 188.473 376.467 188.473L379.467 187.973C379.467 187.973 372.057 185.891 367.467 183.473Z" fill="#3761A8" />
<ns0:ellipse xmlns:ns0="http://www.w3.org/2000/svg" cx="395.741" cy="161.246" rx="1.5012" ry="3.75299" transform="rotate(-12.4311 395.741 161.246)" fill="#3761A8" />

</g>
        </g>

        <!-- 7. NEAR FRONT LEG -->
        <g transform="translate(280, 280) rotate(8.339839427796598) translate(-280, -280)">
          <g id="near_front_leg">
<ns0:g xmlns:ns0="http://www.w3.org/2000/svg">
<ns0:path d="M266.982 274.943C271.667 257.807 284.102 246.278 294.757 249.19C305.411 252.103 310.25 268.355 305.565 285.491C303.365 293.541 299.454 300.353 294.82 305.013C293.286 308.752 291.359 313.887 290.502 317.971C287.404 332.73 291.341 341.545 293.502 356.471C294.61 364.128 294.895 368.526 297.002 375.971C300.594 388.661 311.502 406.471 311.502 406.471L286.502 417.971C286.502 417.971 281.713 419.838 278.502 420.471C272.755 421.603 268.549 423.443 263.502 420.471C260.033 418.428 259.13 415.887 257.002 412.471C248.932 399.517 252.851 380.471 253 374.471C253.469 355.56 257.14 343.988 261.002 325.471C262.648 317.577 265.499 306.972 267.315 300.435C264.715 293.608 264.394 284.411 266.982 274.943Z" fill="#85B1E9" />
</ns0:g>
<ns0:g xmlns:ns0="http://www.w3.org/2000/svg">
<ns0:path d="M317.46 420.055C316.836 412.921 315.135 406.176 312.732 401.304C310.329 396.431 307.421 393.83 304.647 394.073C301.872 394.316 299.46 397.382 297.94 402.598C296.419 407.814 295.916 414.752 296.54 421.885L307 420.97L317.46 420.055Z" fill="#D9D9D9" />
</ns0:g>
<ns0:g xmlns:ns0="http://www.w3.org/2000/svg">
<ns0:path d="M302.5 422.971C302.5 416.34 301.078 409.981 298.546 405.293C296.014 400.605 292.58 397.971 289 397.971C285.42 397.971 281.986 400.605 279.454 405.293C276.922 409.981 275.5 416.34 275.5 422.971L289 422.971H302.5Z" fill="#D9D9D9" />
</ns0:g>

</g>
        </g>

        <!-- 8. NEAR BACK LEG -->
        <g transform="translate(195, 280) rotate(6.880040523586838) translate(-195, -280)">
          <g id="near_back_leg">
<ns0:g xmlns:ns0="http://www.w3.org/2000/svg">
<ns0:path d="M209.501 255.971C227.175 255.971 241.501 273.655 241.501 295.471C241.501 308 236.774 319.166 229.402 326.402L229.501 326.471C229.445 326.52 219.25 335.329 212.001 339.971C204.94 344.492 200.856 347.036 193.001 349.971C188.429 351.679 185.129 352.13 184.498 356.971C178.493 402.971 217.001 403.971 172.001 421.471C167.803 423.103 147.908 422.039 147.001 417.471C131.998 341.972 168.998 334.971 172.001 331.471C175.471 327.425 177.984 324.775 178.501 319.471C178.888 315.507 176.846 313.438 176.501 309.471C176.153 305.467 176.848 300.202 177.511 296.401C177.505 296.092 177.501 295.782 177.501 295.471C177.501 273.656 191.828 255.971 209.501 255.971Z" fill="#85B1E9" />
</ns0:g>
<ns0:g xmlns:ns0="http://www.w3.org/2000/svg">
<ns0:path d="M200.46 419.867C199.836 412.734 198.135 405.989 195.732 401.116C193.329 396.244 190.421 393.643 187.647 393.885C184.872 394.128 182.46 397.195 180.94 402.411C179.419 407.627 178.916 414.564 179.54 421.698L190 420.783L200.46 419.867Z" fill="#D9D9D9" />
</ns0:g>
<ns0:g xmlns:ns0="http://www.w3.org/2000/svg">
<ns0:path d="M185.5 422.783C185.5 416.153 184.078 409.794 181.546 405.106C179.014 400.417 175.58 397.783 172 397.783C168.42 397.783 164.986 400.417 162.454 405.106C159.922 409.794 158.5 416.153 158.5 422.783L172 422.783H185.5Z" fill="#D9D9D9" />
</ns0:g>

</g>
        </g>

        <!-- 9. NEAR WING (Fixed on right at body base, pivoting only tips) -->
        <g transform="translate(270.0, 222.0) rotate(10.435028842544401) translate(-270.0, -222.0)">
          <g id="near_wing">
            <ns0:g xmlns:ns0="http://www.w3.org/2000/svg">
<ns0:path d="M190.994 246.998L194.152 237.14L214.76 236.92L208.711 245.78C208.711 245.78 203.093 247.976 199.313 248.131C196.037 248.266 190.994 246.998 190.994 246.998Z" fill="#E3A93D" />
<ns0:path d="M158.309 215.914L178.644 199.922L211.327 217.689L196.069 231.952C196.069 231.952 190.455 233.696 186.752 233.709C180.321 233.73 176.634 231.849 171.113 228.552C165.081 224.95 158.309 215.914 158.309 215.914Z" fill="#E3A93D" />
<ns0:path d="M165.875 200.369C174.019 204.998 189.643 203.606 189.643 203.606L205.116 183.321C205.116 183.321 180.941 169.741 163.98 169.851C158.311 169.888 145.854 178.512 145.854 178.512C145.854 178.512 151.691 189.621 155.395 192.891C158.636 195.753 160.905 197.544 165.875 200.369Z" fill="#F2EFEC" />
<ns0:path d="M197.176 232.71L230.015 209.342L263.345 222.355C263.345 222.355 251.222 249.15 249.71 251.364C248.198 253.579 242.73 259.606 239.313 256.606C238.186 255.616 237.917 254.695 237.341 253.311C236.402 251.053 236.367 247.126 236.367 247.126C236.367 247.126 233.776 252.825 229.806 255.311C226.915 257.12 224.008 258.434 221.163 256.554C218.541 254.823 218.576 252.08 218.569 248.938C218.562 245.585 221.485 240.862 221.485 240.862L208.711 245.78C208.711 245.78 207.031 242.145 205.199 240.46C201.883 237.41 194.152 237.139 194.152 237.139L197.176 232.71Z" fill="#EFEEEB" />
<ns0:g>
<ns0:path d="M192.741 189.741C204.102 185.226 223.665 184.874 223.665 184.874L242.466 206.802L198.527 231.684C198.527 231.684 194.155 230.699 191.559 229.524C185.404 226.74 182.231 223.767 178.593 218.074C174.867 212.244 173.648 201.06 173.648 201.06C173.648 201.06 184.686 192.942 192.741 189.741Z" fill="#F2EFEC" />
</ns0:g>
<ns0:g>
<ns0:path d="M162.457 136.592L215.315 152.87L226.579 163.483L234.71 174.879L238.654 181.468C238.654 181.468 207.508 196.068 188.42 190.362C181.821 188.389 172.511 182.748 172.511 182.748C172.511 182.748 165.873 170.664 163.811 162.196C161.443 152.467 162.457 136.592 162.457 136.592Z" fill="#F2EFEC" />
</ns0:g>
<ns0:g>
<ns0:path d="M221.611 168.862C226.629 171.068 234.035 175.396 234.035 175.396L265.372 220.819C265.372 220.819 260.663 229.261 255.867 232.839C253.727 234.436 251.816 235.918 250.466 236.944C249.116 237.971 245.816 239.189 243.687 237.838C241.458 236.423 241.788 234.004 242.187 231.08L242.2 230.978C242.485 228.889 243.523 225.711 243.523 225.711C243.523 225.711 240.499 227.869 238.284 228.629C235.543 229.568 233.223 231.185 230.91 229.44C228.416 227.558 229.101 224.956 229.505 221.985C229.916 218.968 231.232 213.748 231.232 213.748C231.232 213.748 227.032 214.57 224.372 215.235C221.24 216.017 219.725 216.096 217.836 214.344C216.145 212.776 216.036 210.974 216.188 208.673C216.368 205.938 219.455 202.46 219.455 202.46C219.455 202.46 213.313 203.96 209.705 202.947C206.916 202.165 204.567 200.886 203.06 198.412C201.477 195.811 202.762 191.713 203.6 190.011C205.585 185.974 212.457 182.745 212.457 182.745C212.457 182.745 204.182 180.715 201.139 176.966C198.3 173.469 195.268 169.321 197.843 165.624C200.086 162.403 203.676 162.784 207.836 163.351C213.524 164.127 216.355 166.551 221.611 168.862Z" fill="#F2EFEC" />
</ns0:g>
<ns0:g>
<ns0:path d="M251.593 188.677C259.295 197.212 273.77 208.039 273.77 208.039L264.103 221.247C264.103 221.247 250.534 207.528 243.762 197.294C236.88 186.893 236.778 178.847 229.497 168.721C224.648 161.977 215.315 152.869 215.315 152.869C215.315 152.869 227.485 157.954 233.872 163.265C243.175 171 243.487 179.695 251.593 188.677Z" fill="#8AB5E7" />
</ns0:g>
<ns0:path d="M163.76 180.344L172.511 182.747C172.511 182.747 165.553 168.802 163.622 159.143C161.893 150.495 162.457 136.591 162.457 136.591L145.226 134.244C145.226 134.244 143.807 140.833 143.85 144.345C143.951 152.625 151 164.971 151 164.971L163.76 180.344Z" fill="#E3A93D" />
</ns0:g>

          </g>
        </g>

      </g>
    </g>
</svg>
